<svg xmlns="http://www.w3.org/2000/svg">
<defs>
<font horiz-adv-x="1017" ><font-face
    font-family="UTM Helve"
    units-per-em="2048"
    panose-1="2 4 6 3 5 5 6 9 2 4"
    ascent="2444"
    descent="-447"
    alphabetic="0" />
<missing-glyph horiz-adv-x="5040" d="M3785 2045H3795Q3830 2035 3821 1993Q3819 1981 3777 1936H3749Q3754 1960 3789 1990L3793 2000Q3791 2013 3786 2015H3777Q3769 2015 3763 1996H3733Q3749 2045 3785 2045ZM2447 2016L2470 1985Q2466 1969 2423 1955H2404L2348
1967L2334 1955L2312 1980Q2329 2009 2361 2009H2372L2411 1998H2413Q2423 1998 2447 2016ZM889 1980H1031L1018 1920H924L908 1845H997L984 1786H895L868 1657L862 1652H813L882 1975L889 1980ZM1576 1980H1619L1624 1975L1607 1897H1637L1626 1845H1596L1556
1657L1549 1652H1500L1541 1845H1516L1527 1897H1552L1569 1975L1576 1980ZM2042 1980H2084L2087 1975L2067 1881H2070Q2098 1905 2129 1905H2131Q2189 1905 2199 1834L2192 1795L2162 1652H2110L2134 1767Q2151 1847 2109 1847H2102Q2059 1847 2041 1761L2018
1652H1967L2036 1975L2042 1980ZM2621 1980H2670L2674 1975L2626 1753Q2626 1702 2661 1702Q2706 1709 2717 1761L2763 1975L2769 1980H2818L2772 1764Q2754 1679 2682 1652Q2665 1644 2645 1644Q2598 1644 2575 1699Q2566 1723 2573 1756L2621 1980ZM2856 1980H3015L3002
1920H2946L2889 1652H2836L2893 1920H2838L2850 1975L2856 1980ZM3042 1980H3113Q3119 1976 3142 1729H3144L3278 1980H3351L3281 1652H3227L3278 1894H3276L3151 1652H3107Q3103 1652 3088 1834L3081 1894H3078L3027 1652H2972L3042 1980ZM4181 1980H4233L4163
1652H4118L4114 1657L4116 1668L4120 1670V1684Q4082 1644 4033 1644Q3966 1644 3953 1735L3956 1774L3957 1777Q3976 1871 4075 1902L4099 1905Q4134 1905 4155 1873H4158L4181 1980ZM2467 1928H2503L2505 1922L2495 1873H2450L2403 1652H2355L2360 1675Q2330
1644 2294 1644Q2208 1658 2226 1741L2259 1897H2310L2288 1793Q2271 1714 2296 1707L2313 1702H2319Q2345 1702 2365 1738L2374 1764L2402 1897H2455L2460 1922L2467 1928ZM3886 1928L3874 1873H3843L3796 1652H3749L3754 1677H3752Q3730 1644 3688 1644Q3620

<glyph unicode=" " glyph-name="space" horiz-adv-x="602" />
<glyph unicode="!" glyph-name="exclam" horiz-adv-x="716" d="M553 291L491 0H192L254 291H553ZM732 1098L504 410H353L417 1098L496 1470H811L732 1098Z" />
<glyph unicode="&quot;" glyph-name="quotedbl" horiz-adv-x="1015" d="M764 918L881 1470H1081L964 918H764ZM395 918L512 1470H713L596 918H395Z" />
<glyph unicode="#" glyph-name="numbersign" horiz-adv-x="1175" d="M1170 594L1106 410H905L761 0H568L713 410H516L372 0H179L324 410H123L187 594H387L472 840H275L340 1024H537L680 1430H872L729 1024H930L1073 1430H1266L1122 1024H1319L1254 840H1058L969
594H1170ZM865 840H665L580 594H776L865 840Z" />
<glyph unicode="$" glyph-name="dollar" horiz-adv-x="1175" d="M1266 1028H1004Q1031 1155 988 1202Q957 1237 881 1237L800 856Q929 811 1001 771T1105 692Q1149 641 1163 570T1159 406Q1123 238 996 115Q839 -37 610 -37L567 -238H473L516 -37Q272 -16 189
96T155 442H425Q409 319 429 270Q456 205 563 184L654 614Q467 668 389 735Q272 840 312 1028Q351 1210 479 1325Q624 1454 833 1454L861 1589H955L927 1454Q1099 1436 1179 1372Q1317 1266 1266 1028ZM712 885L787 1237Q703 1237 649 1188T580 1077Q561 987 606
938Q641 899 712 885ZM740 578L657 184Q725 184 780 223Q856 276 879 385Q896 465 849 518Q810 559 740 578Z" />
<glyph unicode="%" glyph-name="percent" horiz-adv-x="1892" d="M1094 348Q1127 504 1258 612T1545 721Q1697 721 1784 613T1839 348Q1806 197 1672 86T1386 -25Q1233 -25 1147 82T1094 348ZM1302 348Q1287 281 1326 235T1432 188Q1498 188 1554 233T1626 348Q1640
414 1603 463T1500 512Q1433 512 1375 464T1302 348ZM286 1081Q320 1237 451 1345T739 1454Q892 1454 978 1345T1031 1081Q999 928 866 819T580 709Q426 709 340 816T286 1081ZM499 1081Q486 1016 523 969T626 922Q693 922 751 968T823 1081Q838 1149 800 1197T694
1245Q628 1245 571 1198T499 1081ZM1697 1454L564 -41H413L1546 1454H1697Z" />
<glyph unicode="&amp;" glyph-name="ampersand" horiz-adv-x="1544" d="M1035 1135Q1048 1194 1020 1223T937 1253Q888 1253 847 1223T793 1135Q779 1069 861 950Q935 991 974 1030Q1023 1079 1035 1135ZM1240 324L1437 0H1089L1018 127Q923 49 833 10Q713 -41
560 -41Q357 -41 256 83T191 381Q217 504 284 590Q375 705 565 807L601 827Q559 891 539 958Q513 1049 531 1135Q563 1284 692 1377T995 1470Q1133 1470 1219 1391Q1319 1296 1284 1130Q1256 997 1136 893Q1062 829 964 782L1118 524Q1157 569 1190 628T1248 766H1502Q1455
616 1398 521T1240 324ZM908 307L710 643Q591 571 553 532Q499 479 481 397Q468 334 500 281Q545 205 658 205Q723 205 796 238Q850 262 908 307Z" />
<glyph unicode="&apos;" glyph-name="quotesingle" horiz-adv-x="507" d="M338 918L455 1470H656L539 918H338Z" />
<glyph unicode="(" glyph-name="parenleft" horiz-adv-x="716" d="M552 -426H343Q226 -207 183 -4Q128 258 187 537Q246 813 407 1073Q538 1280 753 1503H962Q783 1278 678 1079Q544 825 482 537Q420 246 448 -8Q468 -195 552 -426Z" />
<glyph unicode=")" glyph-name="parenright" horiz-adv-x="716" d="M359 1503H568Q685 1284 728 1081Q783 819 724 545Q665 264 503 4Q375 -203 158 -426H-51Q130 -201 234 -2Q367 252 429 545Q491 834 463 1085Q441 1272 359 1503Z" />
<glyph unicode="*" glyph-name="asterisk" horiz-adv-x="831" d="M968 1298L985 1147L758 1081L855 885L709 795L609 979L427 795L319 885L500 1081L301 1147L378 1298L572 1229L624 1470H800L748 1229L968 1298Z" />
<glyph unicode="+" glyph-name="plus" horiz-adv-x="1245" d="M617 635L702 1036H932L847 635H1248L1199 406H798L712 0H482L568 406H167L216 635H617Z" />
<glyph unicode="," glyph-name="comma" horiz-adv-x="602" d="M502 299L447 41Q409 -137 303 -231Q215 -309 62 -344L81 -238Q169 -207 209 -174Q279 -115 303 0H131L195 299H502Z" />
<glyph unicode="-" glyph-name="hyphen" horiz-adv-x="716" d="M777 709L720 442H151L208 709H777Z" />
<glyph unicode="." glyph-name="period" horiz-adv-x="602" d="M502 299L438 0H131L195 299H502Z" />
<glyph unicode="/" glyph-name="slash" horiz-adv-x="602" d="M961 1511L164 -41H-78L719 1511H961Z" />
<glyph unicode="0" glyph-name="zero" horiz-adv-x="1175" d="M215 709Q297 1094 458 1274T878 1454Q1136 1454 1220 1274T1223 709Q1142 328 980 144T560 -41Q56 -41 215 709ZM510 709Q450 424 469 309T610 193Q731 193 799 306T928 709Q990 997 970 1111T829
1225Q708 1225 640 1111T510 709Z" />
<glyph unicode="1" glyph-name="one" horiz-adv-x="1175" d="M356 1004L399 1204H440Q626 1204 738 1288Q828 1356 849 1454H1083L774 0H487L700 1004H356Z" />
<glyph unicode="2" glyph-name="two" horiz-adv-x="1175" d="M548 942H269Q320 1180 465 1311Q622 1454 854 1454Q1071 1454 1186 1332T1255 995Q1220 827 1097 702Q1013 616 852 524Q749 461 648 399Q510 311 472 254H1102L1048 0H53Q87 160 161 266Q270 422
516 578Q722 709 782 754Q943 872 972 1008Q989 1087 953 1145Q913 1212 815 1212Q682 1212 615 1118Q574 1061 548 942Z" />
<glyph unicode="3" glyph-name="three" horiz-adv-x="1175" d="M574 639L617 844H662Q762 844 820 870Q920 918 946 1040Q959 1104 938 1151Q907 1225 804 1225Q677 1225 611 1126Q576 1073 557 987H291Q337 1200 479 1323Q632 1454 870 1454Q1048 1454 1150 1368Q1279
1260 1234 1049Q1212 948 1141 870Q1080 805 1003 774Q1101 729 1137 642T1147 430Q1103 223 937 91T552 -41Q372 -41 266 31Q89 152 151 446H430Q411 352 430 291Q463 193 590 193Q682 193 755 253T853 430Q881 563 778 610Q717 639 574 639Z" />
<glyph unicode="4" glyph-name="four" horiz-adv-x="1175" d="M382 545H746L884 1171L382 545ZM1193 545L1146 324H986L917 0H630L699 324H126L178 569L898 1454H1226L1033 545H1193Z" />
<glyph unicode="5" glyph-name="five" horiz-adv-x="1175" d="M661 1188L541 872Q609 913 649 928Q723 954 821 954Q989 954 1089 846Q1208 715 1159 483Q1117 287 985 147Q806 -41 519 -41Q331 -41 222 63Q96 184 140 389H427Q417 297 455 245T585 193Q688 193
761 268T860 463Q883 571 849 643Q809 725 703 725Q635 725 582 699T487 618L236 631L504 1430H1303L1251 1188H661Z" />
<glyph unicode="6" glyph-name="six" horiz-adv-x="1175" d="M1266 1085H983Q991 1149 957 1187T845 1225Q716 1225 628 1096Q554 989 519 823L522 819Q571 870 629 899Q714 942 822 942Q1033 942 1125 799Q1206 672 1168 492Q1118 254 956 107T580 -41Q283 -41
203 190Q143 369 212 692Q253 887 307 1012Q389 1206 521 1317Q685 1454 915 1454Q982 1454 1052 1436Q1152 1409 1190 1360Q1238 1300 1255 1247T1266 1085ZM877 467Q904 594 848 659Q802 713 720 713Q632 713 560 655Q477 588 450 463Q425 344 470 269T618 193Q704
193 770 256Q848 330 877 467Z" />
<glyph unicode="7" glyph-name="seven" horiz-adv-x="1175" d="M1385 1430L1338 1208Q1186 1075 1088 969Q905 772 778 559Q614 285 553 0H258Q314 264 478 535Q604 741 785 942Q901 1069 1024 1176H303L361 1430H1385Z" />
<glyph unicode="8" glyph-name="eight" horiz-adv-x="1175" d="M757 864Q837 864 895 914T971 1044Q989 1126 953 1175T842 1225Q748 1225 686 1176T606 1044Q591 973 630 919T757 864ZM1166 434Q1129 260 994 129Q819 -41 561 -41Q305 -41 201 106Q114 229 152
406Q174 510 215 578Q294 709 451 774Q372 819 343 886T335 1057Q374 1241 524 1347T874 1454Q1089 1454 1192 1341Q1286 1237 1252 1077Q1231 977 1176 902T1023 782Q1121 727 1154 653Q1194 569 1166 434ZM868 422Q888 514 855 573Q815 647 703 647Q617 647 550
596Q474 537 450 422Q428 317 473 255T614 193Q716 193 788 268Q849 332 868 422Z" />
<glyph unicode="9" glyph-name="nine" horiz-adv-x="1175" d="M555 975Q523 823 574 760Q617 709 715 709Q799 709 868 764Q950 829 976 950Q1033 1221 816 1221Q738 1221 676 1178Q585 1114 555 975ZM161 336H447Q444 260 479 227T585 193Q688 193 767 279Q863
383 909 598L906 602Q846 535 760 504Q691 479 605 479Q403 479 311 610T259 934Q314 1190 484 1327Q642 1454 866 1454Q1191 1454 1247 1159Q1280 993 1219 709Q1136 317 929 123Q754 -41 531 -41Q347 -41 245 62T161 336Z" />
<glyph unicode=":" glyph-name="colon" horiz-adv-x="716" d="M559 299L495 0H188L252 299H559ZM718 1049L654 750H347L411 1049H718Z" />
<glyph unicode=";" glyph-name="semicolon" horiz-adv-x="716" d="M559 299L504 41Q466 -137 360 -231Q272 -309 119 -344L138 -238Q226 -207 266 -174Q336 -115 360 0H188L252 299H559ZM718 1049L655 750H348L411 1049H718Z" />
<glyph unicode="&lt;" glyph-name="less" horiz-adv-x="1245" d="M1161 205L1114 -16L168 426L207 610L1341 1053L1294 831L487 520L1161 205Z" />
<glyph unicode="=" glyph-name="equal" horiz-adv-x="1245" d="M1296 860L1247 631H215L264 860H1296ZM1200 410L1151 180H119L168 410H1200Z" />
<glyph unicode="&gt;" glyph-name="greater" horiz-adv-x="1245" d="M121 205L933 520L254 831L301 1053L1247 610L1208 426L74 -16L121 205Z" />
<glyph unicode="?" glyph-name="question" horiz-adv-x="1314" d="M855 426H585Q619 586 667 657Q726 745 882 840Q957 885 998 933T1053 1044Q1076 1153 1021 1206Q977 1249 899 1249Q776 1249 702 1167Q648 1108 628 1012L336 1008Q389 1255 578 1384Q734 1491
931 1491Q1174 1491 1294 1368Q1404 1253 1362 1053Q1336 934 1253 844Q1182 766 1035 676Q952 623 919 582Q877 528 855 426ZM847 287L786 0H487L548 287H847Z" />
<glyph unicode="@" glyph-name="at" horiz-adv-x="2076" d="M1354 770Q1371 848 1337 897T1228 946Q1126 946 1038 859T928 668Q911 588 944 538T1049 487Q1155 487 1243 574T1354 770ZM1468 1012L1514 1118H1695L1466 598Q1448 553 1430 508Q1421 467 1454 467Q1542
467 1636 568T1764 827Q1816 1071 1688 1209T1313 1348Q1053 1348 856 1173T602 733Q544 461 679 294T1083 127Q1208 127 1328 171T1548 291H1733Q1592 135 1410 47T1035 -41Q699 -41 513 182T397 737Q467 1063 747 1287T1353 1511Q1643 1511 1815 1339Q1998 1157
1938 877Q1877 588 1634 416Q1446 283 1292 283Q1241 283 1213 309T1195 389L1192 393Q1141 346 1078 315T956 283Q821 283 746 388T701 639Q743 838 894 985Q1057 1143 1246 1143Q1328 1143 1382 1112T1468 1012Z" />
<glyph unicode="A" glyph-name="A" horiz-adv-x="1454" d="M494 303L328 0H4L840 1470H1197L1401 0H1069L1039 303H494ZM630 557H1007L946 1139L630 557Z" />
<glyph unicode="B" glyph-name="B" horiz-adv-x="1544" d="M155 0L467 1470H1184Q1425 1470 1517 1339Q1585 1239 1555 1094Q1525 956 1443 877Q1394 829 1311 795Q1427 745 1461 645Q1491 561 1465 438Q1446 348 1397 272T1274 135Q1182 63 1101 37Q986 0 778
0H155ZM588 647L504 254H881Q997 254 1068 306T1164 471Q1183 559 1129 603T981 647H588ZM709 1217L641 897H1001Q1100 897 1163 934Q1235 977 1253 1061Q1271 1147 1223 1182T1061 1217H709Z" />
<glyph unicode="C" glyph-name="C" horiz-adv-x="1544" d="M1612 991H1305Q1296 1098 1262 1149Q1199 1245 1035 1245Q892 1245 775 1145Q620 1012 560 729Q514 514 570 381Q635 229 819 229Q946 229 1046 300T1201 504H1508Q1406 254 1222 113Q1021 -41 753 -41Q452
-41 313 156Q167 362 246 733Q325 1106 567 1315Q792 1511 1087 1511Q1390 1511 1532 1333Q1652 1182 1612 991Z" />
<glyph unicode="D" glyph-name="D" horiz-adv-x="1544" d="M155 0L467 1470H1118Q1450 1470 1552 1225Q1626 1044 1568 770Q1505 473 1338 268Q1120 0 794 0H155ZM717 1217L512 254H811Q985 254 1104 410Q1204 539 1248 750Q1309 1034 1213 1145Q1151 1217 1012
1217H717Z" />
<glyph unicode="E" glyph-name="E" horiz-adv-x="1429" d="M1548 1470L1494 1212H716L650 901H1367L1312 643H595L514 262H1329L1273 0H155L467 1470H1548Z" />
<glyph unicode="F" glyph-name="F" horiz-adv-x="1314" d="M593 618L462 0H155L467 1470H1516L1462 1212H720L649 881H1296L1240 618H593Z" />
<glyph unicode="G" glyph-name="G" horiz-adv-x="1658" d="M964 545L1017 795H1631L1462 0H1257L1265 184Q1152 82 1078 39Q936 -41 758 -41Q475 -41 330 152Q168 365 246 733Q316 1059 535 1272Q783 1511 1133 1511Q1440 1511 1585 1339Q1708 1194 1670 1016H1363Q1377
1079 1315 1157Q1239 1257 1095 1257Q915 1257 776 1135Q616 993 560 729Q502 453 609 326Q694 221 878 221Q1014 221 1127 308T1304 545H964Z" />
<glyph unicode="H" glyph-name="H" horiz-adv-x="1544" d="M1168 659H594L454 0H147L459 1470H766L648 913H1222L1340 1470H1647L1335 0H1028L1168 659Z" />
<glyph unicode="I" glyph-name="I" horiz-adv-x="602" d="M750 1470L438 0H131L443 1470H750Z" />
<glyph unicode="J" glyph-name="J" horiz-adv-x="1175" d="M1304 1470L1082 426Q1033 195 893 79T530 -37Q204 -37 139 154Q102 266 164 557H451Q409 362 424 297Q443 213 558 213Q666 213 716 276Q753 322 775 426L997 1470H1304Z" />
<glyph unicode="K" glyph-name="K" horiz-adv-x="1544" d="M593 500L487 0H180L492 1470H799L672 872L1360 1470H1758L1028 868L1478 0H1085L769 647L593 500Z" />
<glyph unicode="L" glyph-name="L" horiz-adv-x="1314" d="M774 1470L519 266H1252L1195 0H155L467 1470H774Z" />
<glyph unicode="M" glyph-name="M" horiz-adv-x="1777" d="M1880 1470L1568 0H1282L1543 1229L1003 0H700L695 1229L430 0H143L455 1470H901L922 311L1434 1470H1880Z" />
<glyph unicode="N" glyph-name="N" horiz-adv-x="1544" d="M1364 1470H1651L1339 0H1032L657 1049L430 0H143L455 1470H779L1143 446L1364 1470Z" />
<glyph unicode="O" glyph-name="O" horiz-adv-x="1548" d="M243 737Q310 1051 490 1243Q631 1395 833 1462Q978 1511 1116 1511Q1255 1511 1374 1464Q1548 1395 1625 1245Q1723 1053 1656 737Q1589 424 1409 229Q1268 78 1065 8Q922 -41 787 -41Q645 -41 526 6Q352
76 275 225Q176 422 243 737ZM550 737Q491 459 599 324Q682 221 842 221Q997 221 1124 324Q1290 459 1349 737Q1408 1014 1299 1147Q1216 1249 1061 1249Q905 1249 776 1147Q608 1012 550 737Z" />
<glyph unicode="P" glyph-name="P" horiz-adv-x="1429" d="M575 532L462 0H155L467 1470H1139Q1354 1470 1449 1345T1497 999Q1464 844 1351 717Q1188 532 927 532H575ZM629 786H916Q1063 786 1136 877Q1175 926 1194 1016Q1216 1122 1163 1169T967 1217H721L629 786Z" />
<glyph unicode="Q" glyph-name="Q" horiz-adv-x="1658" d="M901 401L1095 565L1220 422Q1311 541 1353 737Q1412 1014 1303 1147Q1220 1249 1065 1249Q909 1249 780 1147Q612 1012 554 737Q495 459 603 324Q686 221 846 221Q891 221 930 230T1018 262L901 401ZM1524
61L1325 -106L1188 61Q1082 4 962 -23Q877 -41 791 -41Q649 -41 530 6Q356 76 279 225Q180 422 247 737Q314 1051 494 1243Q635 1395 837 1462Q982 1511 1120 1511Q1259 1511 1378 1464Q1552 1395 1629 1245Q1727 1053 1660 737Q1623 561 1557 433T1398 213L1524
61Z" />
<glyph unicode="R" glyph-name="R" horiz-adv-x="1544" d="M155 0L467 1470H1212Q1468 1470 1556 1313Q1618 1200 1588 1057Q1561 932 1481 837T1284 705Q1378 659 1401 602Q1433 522 1393 332Q1360 180 1353 121T1397 41L1388 0H1048Q1044 57 1049 120T1079 299Q1114
465 1089 514Q1058 578 896 578H581L458 0H155ZM633 823H994Q1116 823 1183 870T1274 1024Q1290 1100 1259 1149Q1219 1217 1098 1217H717L633 823Z" />
<glyph unicode="S" glyph-name="S" horiz-adv-x="1429" d="M178 455H473Q453 365 494 305Q555 217 733 217Q866 217 947 252Q1057 299 1080 406Q1097 483 1033 526Q987 557 853 590L701 627Q477 680 404 739Q279 840 326 1057Q362 1227 492 1346Q672 1511 988
1511Q1289 1511 1406 1341Q1497 1210 1460 1036H1165Q1174 1124 1143 1171Q1087 1257 913 1257Q809 1257 731 1219Q637 1171 618 1081Q602 1006 646 967Q673 944 741 926L1082 840Q1256 795 1327 723Q1422 625 1383 442Q1335 219 1162 96Q969 -41 699 -41Q344 -41
223 137Q137 264 178 455Z" />
<glyph unicode="T" glyph-name="T" horiz-adv-x="1314" d="M1040 1212L782 0H474L732 1212H286L341 1470H1537L1482 1212H1040Z" />
<glyph unicode="U" glyph-name="U" horiz-adv-x="1478" d="M1636 1470L1433 516Q1372 231 1181 92Q998 -41 708 -41Q583 -41 482 -6Q347 41 280 139Q193 272 241 496L448 1470H763L560 516Q529 371 587 296T760 221Q911 221 998 293T1114 504L1320 1470H1636Z" />
<glyph unicode="V" glyph-name="V" horiz-adv-x="1429" d="M1319 1470H1638L826 0H536L352 1470H680L758 356L1319 1470Z" />
<glyph unicode="W" glyph-name="W" horiz-adv-x="2007" d="M450 0L344 1470H672Q684 883 685 707T677 397Q681 408 747 571Q778 651 868 872T1114 1470H1442Q1443 1087 1440 827Q1438 604 1431 397Q1464 477 1503 570T1629 857T1905 1470H2216L1490 0H1195Q1196
276 1199 555Q1198 700 1202 888T1209 1147Q1168 1042 1108 893Q1034 709 976 573Q857 287 737 0H450Z" />
<glyph unicode="X" glyph-name="X" horiz-adv-x="1429" d="M1022 766L1339 0H962L790 504L388 0H28L663 754L369 1470H733L894 995L1266 1470H1618L1022 766Z" />
<glyph unicode="Y" glyph-name="Y" horiz-adv-x="1429" d="M964 553L847 0H540L658 557L344 1470H704L876 831L1302 1470H1651L964 553Z" />
<glyph unicode="Z" glyph-name="Z" horiz-adv-x="1314" d="M1256 262L1200 0H53L109 262L1069 1212H331L385 1470H1508L1457 1229L482 262H1256Z" />
<glyph unicode="[" glyph-name="bracketleft" horiz-adv-x="716" d="M654 1282L338 -205H592L550 -401H46L446 1479H950L908 1282H654Z" />
<glyph unicode="\" glyph-name="backslash" horiz-adv-x="602" d="M389 -41L252 1511H494L631 -41H389Z" />
<glyph unicode="]" glyph-name="bracketright" horiz-adv-x="716" d="M260 -205L576 1282H322L364 1479H868L468 -401H-36L6 -205H260Z" />
<glyph unicode="^" glyph-name="asciicircum" horiz-adv-x="1245" d="M492 664H267L799 1430H1003L1209 664H984L852 1200L492 664Z" />
<glyph unicode="_" glyph-name="underscore" horiz-adv-x="1175" d="M1084 -258H-55L-33 -156H1106L1084 -258Z" />
<glyph unicode="`" glyph-name="grave" horiz-adv-x="716" d="M516 1237L277 1536H596L725 1237H516Z" />
<glyph unicode="a" glyph-name="a" horiz-adv-x="1175" d="M1186 803L1060 213Q1042 125 1051 90T1091 45L1081 0H770Q765 55 765 72T773 131Q692 61 624 27Q514 -29 387 -29Q250 -29 175 45Q89 131 123 291Q155 442 265 535Q362 616 512 639L778 676Q838 686
865 706T899 762Q916 842 856 870Q817 889 737 889Q641 889 587 838Q551 805 529 737H251Q321 965 490 1053Q614 1118 819 1118Q985 1118 1082 1063Q1224 983 1186 803ZM821 393L850 532Q823 512 781 500T641 472T496 428Q431 389 413 307Q399 240 437 205Q468
176 517 176Q617 176 708 235T821 393Z" />
<glyph unicode="b" glyph-name="b" horiz-adv-x="1314" d="M1002 537Q1033 680 998 768Q956 872 831 872Q696 872 612 764Q544 676 511 520Q482 387 523 305Q569 209 698 209Q823 209 910 324Q976 412 1002 537ZM725 1470L615 950Q679 1020 746 1059Q849 1118
970 1118Q1159 1118 1254 979Q1358 825 1301 557Q1249 309 1108 152Q947 -29 718 -29Q618 -29 550 8Q469 51 439 139L405 0H126L438 1470H725Z" />
<glyph unicode="c" glyph-name="c" horiz-adv-x="1175" d="M867 397H1158Q1110 252 1001 143Q829 -29 567 -29Q290 -29 201 158Q133 299 179 516Q238 795 394 948Q565 1118 831 1118Q1007 1118 1117 1038Q1271 928 1222 700H931Q937 766 910 813Q872 877 793 877H780Q657
877 575 770Q510 686 484 561Q453 418 466 342Q489 209 630 209Q726 209 800 285Q855 342 867 397Z" />
<glyph unicode="d" glyph-name="d" horiz-adv-x="1314" d="M1442 1470L1130 0H847L876 139Q807 53 713 12T522 -29Q294 -29 210 152Q135 311 187 557Q245 827 412 979Q567 1118 762 1118Q885 1118 958 1061Q1011 1020 1041 950L1155 1470H1442ZM478 537Q452 416
482 326Q521 209 645 209Q772 209 860 303Q937 387 965 520Q998 674 968 762Q930 872 795 872Q666 872 581 770Q509 684 478 537Z" />
<glyph unicode="e" glyph-name="e" horiz-adv-x="1175" d="M842 319H1137Q1047 137 882 47Q745 -29 584 -29Q334 -29 226 100Q102 250 170 569Q225 827 402 979Q567 1118 806 1118Q1011 1118 1119 1006Q1262 854 1191 520L1180 467H435Q419 324 467 263T633 201Q698
201 757 231T842 319ZM483 655H925Q939 776 884 836Q837 885 753 885Q559 885 483 655Z" />
<glyph unicode="f" glyph-name="f" horiz-adv-x="716" d="M654 885L466 0H180L368 885H208L252 1090H412L431 1180Q465 1341 564 1416T816 1491L963 1487L913 1253H831Q761 1253 742 1232T707 1135L698 1090H883L839 885H654Z" />
<glyph unicode="g" glyph-name="g" horiz-adv-x="1314" d="M1091 1090H1366L1146 57Q1101 -158 1004 -264Q839 -446 487 -446Q298 -446 181 -369Q47 -279 81 -119H392Q393 -172 419 -195Q457 -229 570 -229Q686 -229 755 -169T853 25L880 156L877 160Q799 59 713
23Q643 -8 551 -8Q344 -8 246 131Q141 283 200 557Q257 827 424 979Q579 1118 774 1118Q907 1118 981 1051Q1029 1008 1053 930L1091 1090ZM491 541Q465 418 497 338Q538 238 656 238Q787 238 870 338Q936 418 965 553Q994 692 952 778Q904 872 787 872Q695 872
621 803Q528 715 491 541Z" />
<glyph unicode="h" glyph-name="h" horiz-adv-x="1314" d="M1278 754L1118 0H831L972 664Q991 754 977 799Q950 877 833 877Q735 877 658 811T555 627L422 0H135L447 1470H734L624 950Q669 1020 769 1069T979 1118Q1147 1118 1228 1028Q1316 930 1278 754Z" />
<glyph unicode="i" glyph-name="i" horiz-adv-x="602" d="M375 1090H662L430 0H143L375 1090ZM746 1487L690 1221H403L459 1487H746Z" />
<glyph unicode="j" glyph-name="j" horiz-adv-x="602" d="M662 1090L406 -115Q364 -313 257 -383Q171 -438 -15 -438H-85L-36 -209H13Q60 -209 84 -186T120 -111L375 1090H662ZM746 1487L690 1221H403L459 1487H746Z" />
<glyph unicode="k" glyph-name="k" horiz-adv-x="1175" d="M503 344L430 0H143L455 1470H742L574 676L1022 1090H1374L899 668L1151 0H807L648 467L503 344Z" />
<glyph unicode="l" glyph-name="l" horiz-adv-x="602" d="M742 1470L430 0H143L455 1470H742Z" />
<glyph unicode="m" glyph-name="m" horiz-adv-x="1892" d="M1852 754L1692 0H1405L1546 664Q1570 776 1539 826T1435 877Q1333 877 1276 819T1196 655L1057 0H770L909 655Q932 760 919 801Q899 877 784 877Q688 877 634 820T559 664L418 0H131L363 1090H637L603
930Q662 1006 729 1051Q832 1118 959 1118Q1069 1118 1131 1075Q1186 1038 1225 946Q1310 1040 1386 1079T1553 1118Q1721 1118 1802 1028Q1890 930 1852 754Z" />
<glyph unicode="n" glyph-name="n" horiz-adv-x="1314" d="M1278 754L1118 0H831L972 664Q991 754 977 799Q950 877 833 877Q735 877 658 811T555 627L422 0H135L367 1090H641L607 930Q673 1008 735 1049Q842 1118 979 1118Q1147 1118 1228 1028Q1316 930 1278 754Z" />
<glyph unicode="o" glyph-name="o" horiz-adv-x="1245" d="M1307 545Q1248 264 1047 111Q866 -29 628 -29Q393 -29 271 111Q134 266 193 545Q253 825 454 979Q634 1118 872 1118Q1110 1118 1232 979Q1367 825 1307 545ZM1012 545Q1041 680 1011 762Q971 877 821
877Q674 877 584 764Q517 678 488 545Q460 410 489 328Q531 213 680 213Q828 213 917 326Q984 412 1012 545Z" />
<glyph unicode="p" glyph-name="p" horiz-adv-x="1314" d="M510 520Q482 387 522 305Q569 209 698 209Q823 209 909 324Q975 412 1002 537Q1032 680 998 768Q956 872 831 872Q696 872 612 764Q543 676 510 520ZM631 1090L598 934Q674 1018 740 1059Q838 1118 969
1118Q1158 1118 1254 979Q1358 825 1301 557Q1248 309 1108 152Q946 -29 717 -29Q586 -29 516 33Q478 66 446 139L322 -426H35L357 1090H631Z" />
<glyph unicode="q" glyph-name="q" horiz-adv-x="1314" d="M1087 1090H1362L1040 -426H753L872 135Q747 -29 526 -29Q290 -29 205 160Q136 313 181 524Q234 776 379 934Q547 1118 786 1118Q907 1118 977 1051Q1019 1010 1049 930L1087 1090ZM476 524Q445 377 489
295T656 213Q764 213 848 295T966 541Q1008 735 926 819Q873 872 792 872Q691 872 615 803Q516 713 476 524Z" />
<glyph unicode="r" glyph-name="r" horiz-adv-x="831" d="M131 0L363 1090H637L597 901Q686 1010 739 1051Q830 1118 947 1118Q983 1118 1003 1114L941 823Q922 825 897 826T860 827Q708 827 625 743Q563 680 539 569L418 0H131Z" />
<glyph unicode="s" glyph-name="s" horiz-adv-x="1175" d="M1193 758H910Q913 827 890 856Q854 901 748 901Q643 901 595 866Q558 840 549 795Q535 729 704 692Q952 637 1014 604Q1176 522 1139 348Q1094 137 898 41Q757 -29 579 -29Q360 -29 241 49Q92 147 135
348H430Q414 274 457 236Q509 188 633 188Q734 188 789 229Q833 260 842 303Q857 371 691 410Q436 467 383 496Q225 578 262 754Q293 899 403 995Q544 1118 777 1118Q984 1118 1090 1055Q1237 967 1193 758Z" />
<glyph unicode="t" glyph-name="t" horiz-adv-x="716" d="M748 1384L686 1090H866L822 885H642L517 295Q505 240 521 223T617 205L679 209L633 -8Q600 -12 560 -12T497 -12H460Q284 -12 232 51Q189 102 215 225L355 885H208L252 1090H399L461 1384H748Z" />
<glyph unicode="u" glyph-name="u" horiz-adv-x="1245" d="M1358 1090L1126 0H852L885 156Q737 -29 510 -29Q338 -29 261 68Q179 170 222 373L375 1090H662L518 414Q493 299 542 250Q579 213 663 213Q749 213 820 264Q909 330 937 463L1071 1090H1358Z" />
<glyph unicode="v" glyph-name="v" horiz-adv-x="1175" d="M1345 1090L720 0H417L260 1090H579L634 287L1038 1090H1345Z" />
<glyph unicode="w" glyph-name="w" horiz-adv-x="1658" d="M1808 1090L1261 0H966L967 795L622 0H327L252 1090H559L561 307L887 1090H1174L1171 307L1514 1090H1808Z" />
<glyph unicode="x" glyph-name="x" horiz-adv-x="1175" d="M855 557L1109 0H753L634 328L376 0H32L519 557L276 1090H624L742 774L989 1090H1329L855 557Z" />
<glyph unicode="y" glyph-name="y" horiz-adv-x="1175" d="M1337 1090L734 20Q565 -287 482 -362T214 -438H169Q142 -438 117 -438Q96 -434 88 -434L137 -205Q148 -209 189 -209Q279 -209 319 -184Q373 -152 412 -45L252 1090H571L634 287L1034 1090H1337Z" />
<glyph unicode="z" glyph-name="z" horiz-adv-x="1060" d="M1144 856L464 238H1033L982 0H40L88 225L784 860H264L313 1090H1194L1144 856Z" />
<glyph unicode="{" glyph-name="braceleft" horiz-adv-x="831" d="M702 -221L664 -401H492Q382 -401 316 -336Q236 -258 265 -123L353 291Q371 375 306 416Q259 446 193 446L233 635Q299 635 356 664Q441 707 459 791L546 1200Q575 1333 685 1411Q782 1479 892
1479H1064L1025 1298H931Q861 1298 826 1255Q801 1225 787 1163L702 762Q664 649 568 590Q502 551 422 541Q495 537 545 494Q618 432 607 315L522 -86Q509 -145 522 -176Q538 -221 608 -221H702Z" />
<glyph unicode="|" glyph-name="bar" horiz-adv-x="602" d="M163 -41L493 1511H722L392 -41H163Z" />
<glyph unicode="}" glyph-name="braceright" horiz-adv-x="831" d="M835 635L795 446Q730 446 673 418Q588 375 570 291L482 -123Q454 -256 343 -334Q247 -401 136 -401H-36L2 -221H96Q166 -221 201 -178Q227 -147 240 -86L325 315Q364 432 461 492Q534 537 605
537Q526 551 483 588Q410 649 420 762L505 1163Q518 1223 506 1253Q489 1298 419 1298H325L364 1479H536Q647 1479 712 1413Q792 1335 763 1200L676 791Q659 707 723 666Q770 635 835 635Z" />
<glyph unicode="~" glyph-name="asciitilde" horiz-adv-x="1245" d="M1148 705L1183 520Q1104 434 1053 399Q974 344 888 344Q837 344 794 359T693 410T599 461Q542 483 475 483Q428 483 386 457Q331 422 272 336L237 520Q295 600 355 641Q434 696 528 696Q573
696 635 676Q679 662 744 631Q794 604 846 579T936 553Q992 553 1049 600Q1078 625 1148 705Z" />
</font>
</defs>
</svg>
