<?xml version="1.0" standalone="no"?> <!DOCTYPE svg PUBLIC "-//W3C//DTD SVG 1.0//EN" "http://www.w3.org/TR/2001/REC-SVG-20010904/DTD/svg10.dtd" > <svg xmlns="http://www.w3.org/2000/svg" width="100%" height="100%">
<defs >
<font horiz-adv-x="625" ><font-face
    font-family="UVN Ke Chuyen3"
    units-per-em="2048"
    panose-1="3 3 6 2 3 6 7 8 11 5"
    ascent="2241"
    descent="-676"
    alphabetic="0" />
<missing-glyph horiz-adv-x="1024" d="M128 0V2241H896V0H128ZM256 128H768V2113H256V128Z" />
<glyph unicode=" " glyph-name="space" horiz-adv-x="420" />
<glyph unicode="!" glyph-name="exclam" horiz-adv-x="541" d="M18 49Q18 83 43 113T102 143Q160 143 160 84Q160 51 135 21T78 -10Q18 -10 18 49ZM559 995L735 1012L224 259Q189 207 172 207Q154 207 154 223Q154 240 176 281L559 995Z" />
<glyph unicode="&quot;" glyph-name="quotedbl" horiz-adv-x="666" d="M508 870H479L422 1323Q418 1355 418 1368Q418 1462 494 1462Q571 1462 571 1368Q571 1354 567 1323L508 870ZM186 870H158L98 1323Q94 1353 94 1368Q94 1462 172 1462Q248 1462 248 1368Q248
1355 244 1324L186 870Z" />
<glyph unicode="#" glyph-name="numbersign" horiz-adv-x="1575" d="M700 877L592 573H893L999 877H700ZM809 1454H903L729 956H1028L1204 1454H1300L1124 956H1446L1419 877H1096L989 573H1337L1309 494H961L786 0H690L864 494H563L389 0H295L469 494H129L160
573H498L604 877H236L264 956H633L809 1454Z" />
<glyph unicode="$" glyph-name="dollar" horiz-adv-x="721" d="M670 752Q676 700 709 700Q743 700 762 741Q778 773 778 811Q778 861 745 894L670 752ZM444 650L502 503L588 659Q563 684 563 708Q563 769 621 769Q630 769 645 765L719 908Q665 931 627 931Q622
931 592 927L444 650ZM434 697L553 922Q426 881 426 752Q426 745 434 697ZM301 55Q446 101 446 283Q446 315 444 331L301 55ZM135 70Q194 47 227 47Q244 47 262 49L432 371Q402 454 373 512L289 358Q305 330 305 311Q305 244 231 250L135 70ZM109 82L205 262Q186
271 167 309Q151 344 137 344Q98 344 70 296Q45 254 45 211Q45 129 109 82ZM123 41L31 -129L4 -113L92 55Q12 122 12 207Q12 288 61 346Q113 408 193 408Q233 408 266 381L354 549Q328 631 328 684Q328 792 398 874T575 967L659 1118L684 1104L615 967Q674 963
733 938L827 1114L856 1102L760 922Q811 873 811 805Q811 738 771 686Q728 631 662 631Q657 631 612 643L518 465Q547 393 547 326Q547 216 469 128T281 18L203 -127L176 -111L244 16Q181 16 123 41Z" />
<glyph unicode="%" glyph-name="percent" horiz-adv-x="1147" d="M973 457Q918 457 841 364Q779 291 747 221T715 100Q715 23 780 23Q862 23 951 142T1040 373Q1040 457 973 457ZM1077 371Q1077 243 978 117T780 -10Q720 -10 683 36Q649 79 649 141Q649 260 749
374Q852 492 969 492Q1077 492 1077 371ZM516 954Q438 954 345 814Q258 683 258 598Q258 522 324 522Q405 522 494 640T584 870Q584 954 516 954ZM985 866Q867 805 780 805Q673 805 618 856Q600 710 509 600T326 489Q265 489 229 536Q195 579 195 641Q195 760 293
873Q395 991 512 991Q570 991 600 951Q626 915 651 878Q693 838 778 838Q863 838 960 892Q1041 943 1122 995L1134 994Q1137 990 1137 987Q1137 970 1081 913L137 -49Q68 -119 37 -119Q10 -119 10 -106Q10 -92 76 -27L985 866Z" />
<glyph unicode="&amp;" glyph-name="ampersand" horiz-adv-x="1460" d="M741 705Q899 756 972 802Q1100 883 1100 999Q1100 1056 1062 1090T965 1124Q859 1124 790 1015Q729 919 729 807Q729 789 735 755T741 705ZM891 238Q776 492 723 653Q336 498 336 221Q336
138 383 80Q433 18 514 18Q718 18 891 238ZM928 233Q979 119 979 -27Q979 -280 813 -457Q644 -637 393 -637Q253 -637 155 -568Q45 -491 45 -356Q45 -272 115 -196T268 -119Q281 -119 285 -125Q232 -154 179 -182Q78 -245 78 -352Q78 -452 163 -508Q237 -557 342
-557Q569 -557 756 -375T944 35Q944 110 905 209Q724 -10 506 -10Q380 -10 303 61Q223 134 223 258Q223 538 712 696V703Q712 719 706 755T700 809Q700 933 767 1036Q843 1153 961 1153Q1037 1153 1083 1109T1130 989Q1130 869 995 779Q918 727 754 666Q778 563
913 264Q1155 576 1200 628Q1428 889 1540 889Q1575 889 1597 864T1620 803Q1620 729 1544 729Q1517 729 1483 762T1436 795Q1373 795 1174 553Q1140 511 928 233Z" />
<glyph unicode="&apos;" glyph-name="quotesingle" horiz-adv-x="342" d="M184 870H156L96 1324Q94 1339 94 1368Q94 1462 170 1462Q248 1462 248 1368Q248 1354 244 1324L184 870Z" />
<glyph unicode="(" glyph-name="parenleft" horiz-adv-x="664" d="M293 -346Q277 -346 233 -285Q98 -99 98 137Q98 519 430 894Q693 1191 1098 1419Q1229 1493 1253 1493Q1270 1493 1270 1481Q1270 1475 1150 1404Q1027 1331 918 1243Q592 981 393 641T193 20Q193
-150 287 -298Q305 -326 305 -332Q305 -346 293 -346Z" />
<glyph unicode=")" glyph-name="parenright" horiz-adv-x="664" d="M479 1491Q495 1491 539 1430Q674 1244 674 1008Q674 625 343 252Q80 -45 -326 -273Q-457 -346 -481 -346Q-500 -346 -500 -336Q-500 -330 -378 -258Q-251 -183 -143 -96Q182 164 381 503T580
1124Q580 1295 485 1445Q467 1473 467 1479Q467 1491 479 1491Z" />
<glyph unicode="*" glyph-name="asterisk" horiz-adv-x="711" d="M674 1169L510 1090Q462 1067 438 1067Q399 1067 399 1116Q399 1152 485 1167L664 1198L512 1300Q455 1338 455 1366Q455 1413 496 1413Q522 1413 568 1359L684 1223L698 1402Q705 1493 745 1493Q795
1493 795 1448Q795 1439 776 1386L715 1217L879 1294Q928 1317 950 1317Q989 1317 989 1270Q989 1232 903 1217L725 1186L877 1083Q936 1043 936 1018Q936 971 893 971Q866 971 821 1024L705 1161L690 980Q683 891 641 891Q596 891 596 938Q596 953 674 1169Z"
/>
<glyph unicode="+" glyph-name="plus" horiz-adv-x="1706" d="M813 1221H893V651H1452V569H893V0H813V569H254V651H813V1221Z" />
<glyph unicode="," glyph-name="comma" horiz-adv-x="418" d="M266 82Q266 -12 137 -114Q13 -211 -84 -211Q-98 -211 -98 -197Q-98 -182 -60 -170Q54 -135 93 -82Q123 -39 123 27Q123 143 205 143Q266 143 266 82Z" />
<glyph unicode="-" glyph-name="hyphen" horiz-adv-x="729" d="M115 252L158 342H635L592 252H115Z" />
<glyph unicode="." glyph-name="period" horiz-adv-x="418" d="M102 49Q102 83 127 113T186 143Q244 143 244 84Q244 51 219 21T162 -10Q102 -10 102 49Z" />
<glyph unicode="/" glyph-name="slash" horiz-adv-x="606" d="M-16 -182L627 1130H735L0 -190L-16 -182Z" />
<glyph unicode="0" glyph-name="zero" horiz-adv-x="834" d="M225 141Q225 25 297 25Q420 25 574 255Q690 430 751 602Q801 746 801 846Q801 961 719 961Q663 961 588 899Q456 791 341 550T225 141ZM285 -10Q199 -10 155 78Q121 147 121 242Q121 438 258 646Q390
847 568 945Q653 991 721 991Q858 991 858 801Q858 691 807 554T662 287Q450 -10 285 -10Z" />
<glyph unicode="1" glyph-name="one" horiz-adv-x="639" d="M111 0L641 850Q168 410 109 410Q98 410 98 424Q98 431 204 513Q378 649 620 884Q730 991 739 991Q756 991 756 979Q756 954 733 909L279 20L111 0Z" />
<glyph unicode="2" glyph-name="two" horiz-adv-x="834" d="M113 156Q213 244 295 244Q341 244 375 219T424 120Q436 61 467 61Q517 61 610 168T707 276Q715 273 715 260Q715 230 626 138Q546 54 505 29Q451 -4 397 -4Q357 -4 328 15Q288 41 281 117Q275 180 240
180Q171 180 84 85T2 -10Q-12 -10 -12 6Q-12 62 69 160Q147 254 283 352Q398 432 513 511Q637 608 695 721Q731 792 731 840Q731 896 693 928T598 961Q484 961 385 879Q281 794 281 682Q281 652 298 627T344 602Q490 602 590 839Q609 883 621 883Q635 883 635 854Q635
746 553 651Q468 551 362 551Q244 551 244 674Q244 795 360 894T627 993Q722 993 782 940T842 793Q842 694 764 601Q682 504 421 377Q177 258 113 156Z" />
<glyph unicode="3" glyph-name="three" horiz-adv-x="834" d="M500 514Q684 514 684 350Q684 208 541 96Q406 -10 260 -10Q171 -10 113 36Q49 85 49 172Q49 291 139 291Q205 291 205 219Q205 176 157 150T109 115Q109 80 154 57Q192 39 231 39Q298 39 361 78Q429
120 501 219Q580 326 580 397Q580 481 498 481Q463 481 411 457T352 432Q334 432 334 449Q334 466 406 502Q756 676 756 858Q756 952 633 952Q546 952 459 892Q362 827 362 745Q362 680 426 680Q487 680 549 741Q604 794 627 859Q638 889 647 889Q657 889 657 872Q657
780 591 706Q523 629 432 629Q330 629 330 729Q330 826 434 908T670 991Q749 991 801 952Q858 908 858 831Q858 642 500 514Z" />
<glyph unicode="4" glyph-name="four" horiz-adv-x="815" d="M250 -10L383 193Q264 211 211 211Q169 211 63 172Q43 172 43 184Q43 193 92 262Q326 594 504 956L684 973Q451 617 133 242Q189 256 209 256Q275 256 412 231Q736 717 766 717Q780 717 780 702Q780
697 697 545Q613 390 539 230Q588 236 629 261T711 313Q725 313 725 299Q725 289 703 267Q626 186 514 186Q484 132 434 8L250 -10Z" />
<glyph unicode="5" glyph-name="five" horiz-adv-x="797" d="M504 850L319 559Q414 612 485 612Q577 612 631 556T686 408Q686 246 533 116Q386 -8 221 -8Q31 -8 31 158Q31 295 133 295Q199 295 199 223Q199 166 149 150T98 109Q98 71 138 49Q172 31 213 31Q341
31 461 185Q575 331 575 463Q575 573 473 573Q394 573 309 501T227 428Q211 428 211 444Q211 464 225 487L541 999Q661 948 766 948Q839 948 908 982Q918 987 924 989Q934 986 934 975Q934 939 843 884T643 829Q573 829 504 850Z" />
<glyph unicode="6" glyph-name="six" horiz-adv-x="840" d="M217 121Q217 25 289 25Q390 25 496 181T602 492Q602 588 530 588Q421 588 314 406Q217 240 217 121ZM319 481Q437 625 541 625Q619 625 661 566Q698 514 698 434Q698 309 619 195Q545 86 429 27Q356
-10 293 -10Q202 -10 157 73Q121 139 121 238Q121 356 178 479Q264 666 445 819Q646 989 831 989Q893 989 944 952Q999 912 999 852Q999 811 975 780Q948 745 909 745Q848 745 848 803Q848 833 874 867T901 903Q901 954 827 954Q687 954 526 779Q407 650 319 481Z"
/>
<glyph unicode="7" glyph-name="seven" horiz-adv-x="778" d="M730 490L712 453H555Q413 236 285 0L113 -10Q211 192 431 453H183L199 490H463Q548 589 752 807Q672 768 616 768Q569 768 485 814T379 860Q343 860 292 764T205 668Q178 668 178 694Q178 711 229
777Q272 833 329 921Q374 991 408 991Q414 989 414 975L371 893Q452 946 504 946Q537 946 608 900T711 854Q763 854 818 910T883 967Q905 967 905 940Q905 933 852 866Q710 685 580 490H730Z" />
<glyph unicode="8" glyph-name="eight" horiz-adv-x="834" d="M422 514Q346 636 346 717Q346 834 447 915Q542 991 662 991Q746 991 797 948Q850 902 850 819Q850 646 569 543Q657 408 657 319Q657 183 540 84Q429 -10 291 -10Q201 -10 141 40Q78 94 78 182Q78
294 200 389Q273 446 422 514ZM551 569Q780 652 780 831Q780 888 749 925T662 963Q587 963 531 909T475 780Q475 700 551 569ZM438 487Q150 363 150 180Q150 109 192 65T305 20Q398 20 465 84T532 242Q532 352 438 487Z" />
<glyph unicode="9" glyph-name="nine" horiz-adv-x="840" d="M741 866Q741 963 672 963Q569 963 466 812T362 510Q362 412 426 412Q541 412 646 585Q741 742 741 866ZM645 522Q531 375 426 375Q346 375 305 438Q270 491 270 575Q270 722 396 858T668 995Q756 995
802 913Q840 847 840 752Q840 551 714 354Q593 164 412 64Q283 -8 174 -8Q95 -8 37 33Q-29 79 -29 154Q-29 194 -8 225Q17 260 55 260Q125 260 125 182Q125 148 98 112T70 74Q70 25 156 25Q285 25 425 164T645 522Z" />
<glyph unicode=":" glyph-name="colon" horiz-adv-x="465" d="M274 453Q274 487 299 517T358 547Q416 547 416 487Q416 454 390 424T332 393Q274 393 274 453ZM37 49Q37 83 62 113T121 143Q178 143 178 84Q178 51 153 21T96 -10Q37 -10 37 49Z" />
<glyph unicode=";" glyph-name="semicolon" horiz-adv-x="465" d="M274 453Q274 487 299 517T358 547Q416 547 416 487Q416 454 390 424T332 393Q274 393 274 453ZM184 82Q184 -10 54 -113Q-70 -211 -166 -211Q-182 -211 -182 -197Q-182 -182 -144 -170Q-30 -135
9 -83Q26 -58 43 59Q54 141 121 141Q184 141 184 82Z" />
<glyph unicode="&lt;" glyph-name="less" horiz-adv-x="1706" d="M1442 1124V1034L397 610L1442 186V98L264 580V641L1442 1124Z" />
<glyph unicode="=" glyph-name="equal" horiz-adv-x="1706" d="M254 469H1452V387H254V469ZM254 831H1452V752H254V831Z" />
<glyph unicode="&gt;" glyph-name="greater" horiz-adv-x="1706" d="M264 1124L1442 641V580L264 98V186L1309 610L264 1034V1124Z" />
<glyph unicode="?" glyph-name="question" horiz-adv-x="668" d="M37 49Q37 83 62 113T121 143Q178 143 178 84Q178 51 153 21T96 -10Q37 -10 37 49ZM162 221Q162 243 210 316Q257 386 330 463Q433 564 536 665Q657 800 657 911Q657 989 559 989Q489 989 420 939T350
856Q350 851 388 824T426 764Q426 735 407 715T358 694Q325 694 304 722Q285 747 285 782Q285 880 378 952Q465 1020 565 1020Q653 1020 704 965T756 821Q756 709 667 625Q624 586 482 501Q309 399 224 267Q184 205 174 205Q162 205 162 221Z" />
<glyph unicode="@" glyph-name="at" horiz-adv-x="2019" d="M1194 344Q1076 127 877 127Q750 127 678 233Q616 326 616 459Q616 648 759 821Q910 1004 1094 1004Q1266 1004 1313 803L1370 987H1491L1323 383Q1303 311 1303 274Q1303 164 1407 164Q1455 164 1515
193Q1663 264 1751 435Q1833 594 1833 768Q1833 1072 1626 1247Q1432 1411 1122 1411Q732 1411 488 1151Q248 896 248 504Q248 329 304 203Q395 -5 621 -126Q828 -238 1069 -238Q1417 -238 1692 -29L1718 -59Q1423 -279 1069 -279Q878 -279 727 -234Q462 -154 306
54T150 537Q150 925 440 1191Q722 1450 1114 1450Q1446 1450 1652 1276Q1872 1091 1872 766Q1872 436 1651 236Q1528 125 1399 125Q1206 125 1194 344ZM1090 971Q1033 971 986 940Q888 876 807 687Q731 509 731 381Q731 292 767 234Q811 166 895 166Q1051 166 1171
383Q1276 572 1276 743Q1276 831 1228 897Q1175 971 1090 971Z" />
<glyph unicode="A" glyph-name="A" horiz-adv-x="2445" d="M1602 319Q1683 392 2034 770Q1907 1020 1686 1020Q1557 1020 1472 920Q1391 826 1391 694Q1391 482 1602 319ZM2013 160Q2081 329 2081 494Q2081 636 2048 741Q1912 591 1628 303Q1789 182 2013 160ZM2093
326Q2350 873 2820 1386Q2496 1251 2071 764Q2109 642 2109 498Q2109 424 2093 326ZM1944 -10Q1963 37 2001 131Q1792 153 1602 279Q1268 -10 870 -10Q634 -10 482 85Q299 198 299 420Q299 626 474 764Q636 891 848 891Q1005 891 1116 821Q1247 738 1247 590Q1247
418 1115 319Q996 229 819 229Q718 229 717 252Q720 260 735 260Q748 260 773 258T811 256Q967 256 1079 329Q1208 413 1208 561Q1208 685 1105 749Q1019 803 887 803Q667 803 511 674T354 371Q354 187 527 93Q666 18 866 18Q1262 18 1575 299Q1315 509 1315 762Q1315
903 1403 992T1632 1081Q1894 1081 2056 793Q2284 1044 2462 1188Q2687 1370 2945 1481Q2513 961 2173 152Q2282 158 2373 221Q2417 254 2460 287L2463 286L2466 281Q2466 239 2375 184T2159 119L2107 12L1944 -10Z" />
<glyph unicode="B" glyph-name="B" horiz-adv-x="2142" d="M1184 1425Q888 1336 695 1143T502 766Q502 674 554 621T698 567Q839 567 994 715Q1129 844 1194 994Q1247 1115 1247 1241Q1247 1346 1184 1425ZM1894 1362Q1692 1193 1486 792Q1459 739 1403 635Q1226
330 1006 158Q783 -16 573 -16Q474 -16 401 26Q313 77 313 170Q313 215 340 245T412 276Q496 276 496 186Q496 167 483 139T469 102Q469 16 594 16Q798 16 998 265Q1097 387 1263 689Q1345 837 1388 906Q1463 1027 1536 1108Q1661 1247 1858 1391Q1700 1466 1497
1466Q1375 1466 1237 1436Q1329 1334 1329 1180Q1329 942 1147 730Q957 510 723 510Q611 510 543 569Q471 631 471 741Q471 952 662 1151T1165 1452Q1071 1516 944 1516Q751 1516 593 1396Q450 1287 360 1101Q350 1077 340 1053Q323 1017 313 1016L310 1018Q309
1023 309 1028Q309 1076 373 1186Q581 1542 940 1542Q1099 1542 1208 1460Q1381 1495 1499 1495Q1707 1495 1898 1419Q2006 1473 2019 1473Q2035 1473 2038 1466Q1998 1440 1942 1403Q2130 1294 2130 1114Q2130 872 1804 778Q2068 712 2068 469Q2068 277 1902 131Q1742
-10 1548 -10Q1442 -10 1377 43Q1307 101 1307 205Q1307 370 1454 492Q1486 519 1513 528L1519 526Q1522 520 1522 518Q1522 515 1474 472Q1416 421 1383 370Q1335 293 1335 209Q1335 126 1382 79T1513 31Q1683 31 1806 189Q1921 337 1921 512Q1921 595 1879 668Q1830
754 1753 754Q1731 754 1687 737T1618 719Q1563 719 1563 762Q1563 811 1632 811Q1648 811 1680 806T1729 801Q1816 801 1904 914T1993 1163Q1993 1288 1894 1362Z" />
<glyph unicode="C" glyph-name="C" horiz-adv-x="1536" d="M700 803Q905 1097 1227 1280Q1020 1495 758 1495Q587 1495 456 1411Q305 1313 305 1151Q305 1000 431 903Q539 820 700 803ZM850 793H889Q1116 793 1359 879Q1619 970 1771 1118Q1886 1230 1886 1323Q1886
1436 1759 1436Q1570 1436 1288 1253Q1399 1077 1399 1057Q1399 1042 1389 1042Q1384 1042 1330 1128Q1266 1230 1262 1235Q975 1029 850 793ZM936 18Q1133 37 1283 179T1434 469Q1434 526 1405 564Q1372 606 1317 606Q1196 606 1086 460Q997 343 958 202Q936 122
936 18ZM635 696Q467 731 367 833Q258 943 258 1108Q258 1297 413 1416Q555 1524 750 1524Q1031 1524 1253 1294Q1562 1464 1757 1464Q1917 1464 1917 1327Q1917 1215 1780 1087Q1662 976 1460 877Q1277 787 1100 740Q952 701 801 690Q700 463 700 270Q700 31 901
17Q895 79 895 121Q895 345 1015 501T1290 657Q1372 657 1419 607T1466 473Q1466 319 1310 167T940 -17Q942 -67 960 -124Q968 -151 977 -180Q977 -190 965 -190Q932 -190 905 -18H864Q718 -18 631 93Q551 196 551 346Q551 503 635 696Z" />
<glyph unicode="D" glyph-name="D" horiz-adv-x="1792" d="M1028 1395Q777 1317 604 1106T430 690Q430 508 621 508Q834 508 991 710Q1137 899 1137 1118Q1137 1274 1028 1395ZM725 39Q821 31 903 31Q1174 31 1386 146Q1608 267 1731 500Q1821 671 1821 850Q1821
1074 1688 1235Q1585 1126 1456 881Q1284 554 1160 392Q955 124 725 39ZM1708 1260Q1849 1080 1849 858Q1849 579 1667 349Q1490 125 1218 45Q1065 0 874 0Q832 0 749 2T623 4Q588 4 517 -3T410 -10Q207 -10 207 63Q207 109 305 109Q377 109 492 83T643 57Q785
57 930 241Q1004 335 1119 549Q1371 1018 1642 1276Q1483 1417 1223 1417Q1153 1417 1065 1401Q1165 1269 1165 1110Q1165 882 1006 684Q837 475 614 475Q482 475 401 554T319 766Q319 983 502 1170T977 1432Q877 1487 752 1487Q507 1487 324 1296Q156 1120 114
870Q110 840 97 784Q94 776 92 776Q78 776 78 805Q78 872 108 972Q178 1206 341 1354Q519 1516 750 1516Q898 1516 1018 1442Q1122 1456 1180 1456Q1480 1456 1665 1298Q1840 1434 1911 1434Q1914 1434 1919 1432L1921 1427Q1853 1383 1708 1260Z" />
<glyph unicode="E" glyph-name="E" horiz-adv-x="1223" d="M834 983Q1080 1027 1258 1151T1436 1378Q1436 1448 1343 1448Q1229 1448 1063 1331Q1147 1242 1147 1212Q1147 1211 1146 1206L1143 1204Q1133 1205 1093 1251Q1066 1281 1040 1311Q834 1184 834 983ZM723
975Q711 1013 711 1040Q711 1219 973 1368Q820 1487 637 1487Q506 1487 406 1428Q287 1357 287 1235Q287 1113 412 1036Q520 969 649 969Q661 969 723 975ZM621 -10Q466 -10 377 60Q279 137 279 289Q279 504 462 656Q610 780 846 840Q787 868 760 911Q680 901 629
901Q470 901 362 965Q231 1043 231 1192Q231 1345 362 1436Q477 1516 637 1516Q839 1516 1001 1386Q1200 1475 1333 1475Q1468 1475 1468 1378Q1468 1272 1288 1138T840 926Q863 854 961 854Q971 854 989 856T1018 858Q1073 858 1073 825Q1073 795 1024 795Q1002
795 960 805T897 815Q849 815 773 781Q620 713 523 576Q422 433 422 270Q422 175 470 109Q523 36 614 27Q614 37 613 57T612 88Q612 326 726 488T997 651Q1071 651 1117 605T1163 485Q1163 288 1004 146Q859 16 655 -10Q661 -64 674 -123T688 -186Q688 -198 682
-201Q656 -199 621 -10ZM653 25H674Q837 25 986 168T1135 475Q1135 610 1022 610Q916 610 812 483Q728 381 687 259Q653 160 653 25Z" />
<glyph unicode="F" glyph-name="F" horiz-adv-x="2093" d="M1921 1204Q1921 1160 1845 1049Q1661 780 1403 780Q1285 780 1198 833Q1096 895 1096 1006Q1096 1092 1154 1172Q1355 1446 2093 1446Q2138 1446 2228 1444T2363 1442Q2527 1442 2716 1464Q2750 1468
2759 1468Q2781 1468 2781 1452Q2781 1416 2680 1370T2451 1323Q2368 1323 2150 1348T1800 1374Q1503 1374 1316 1272T1128 1018Q1128 938 1203 893Q1267 854 1352 854Q1569 854 1756 1034Q1837 1126 1917 1219L1920 1217Q1921 1211 1921 1204ZM1716 637Q1551 583
1396 437Q1380 421 1350 401L1347 404Q1347 405 1346 408Q1346 421 1372 453Q1393 478 1452 526Q1567 620 1743 678Q1889 937 2054 1112T2286 1288Q2290 1288 2292 1288L2294 1284Q2289 1278 2277 1266Q2088 1079 1913 702Q2074 720 2252 817Q2294 840 2302 840Q2318
840 2318 829Q2312 819 2295 798Q2172 648 2105 512Q2094 488 2083 463Q2069 435 2050 422Q1983 375 1929 371Q1919 374 1919 391Q1919 433 2029 572Q2111 675 2179 745Q2039 683 1894 670Q1517 -12 831 -12Q602 -12 455 81Q279 192 279 408Q279 624 446 762Q603
891 823 891Q981 891 1095 818Q1227 732 1227 582Q1227 424 1085 319Q956 223 793 223Q694 223 617 254Q586 266 571 274Q538 292 537 307L540 312Q545 313 549 313Q553 313 575 303Q686 252 788 252Q937 252 1053 329Q1186 417 1186 559Q1186 683 1087 751Q1002
809 872 809Q646 809 483 681T319 381Q319 195 487 96Q626 14 825 14Q1137 14 1362 187Q1554 334 1716 637Z" />
<glyph unicode="G" glyph-name="G" horiz-adv-x="1868" d="M1157 829Q1280 1105 1632 1315Q1446 1522 1182 1522Q992 1522 860 1418T727 1171Q727 1015 870 921Q988 842 1157 829ZM1319 827Q1680 827 1978 1004Q2127 1092 2210 1186T2294 1352Q2294 1454 2163
1454Q1974 1454 1704 1274Q1808 1132 1808 1087Q1808 1073 1802 1071Q1794 1073 1759 1137Q1720 1205 1679 1257Q1392 1052 1319 827ZM1823 686Q1565 426 1358 426Q1253 426 1190 495T1126 670Q1126 699 1128 727Q940 744 820 836Q682 942 682 1120Q682 1316 838
1436Q981 1546 1182 1546Q1468 1546 1659 1327Q1954 1485 2161 1485Q2322 1485 2322 1358Q2322 1261 2206 1142Q2099 1033 1916 933Q1750 842 1586 792Q1441 747 1290 733Q1274 669 1274 618Q1274 459 1395 459Q1500 459 1646 572Q1724 632 1875 780Q1988 893 2013
893Q2023 893 2023 883Q2023 872 1999 835Q1942 749 1857 546Q1825 469 1757 317Q1617 24 1377 -147Q1122 -330 811 -330Q596 -330 445 -232Q268 -118 268 86Q268 279 432 421T823 563Q980 563 1096 487Q1229 399 1229 250Q1229 92 1092 -8Q968 -98 805 -98Q752
-98 668 -81Q559 -60 559 -31Q560 -27 563 -25T571 -23Q577 -23 600 -31Q719 -72 813 -72Q954 -72 1066 10Q1190 100 1190 236Q1190 354 1092 419Q1007 475 883 475Q688 475 517 360Q326 231 326 45Q326 -118 475 -214Q604 -297 776 -297Q1061 -297 1301 -75T1823
686Z" />
<glyph unicode="H" glyph-name="H" horiz-adv-x="2425" d="M2347 838Q2591 911 2774 1010Q3060 1164 3060 1319Q3060 1403 2980 1403Q2841 1403 2626 1182Q2483 1035 2347 838ZM1794 643Q1622 334 1373 160Q1100 -31 768 -31Q545 -31 393 62Q211 173 211 383Q211
581 382 726Q553 866 805 866Q966 866 1076 799Q1208 719 1208 567Q1208 419 1072 312T739 205Q644 205 560 233T475 281Q476 284 478 286T485 289Q490 289 516 278Q628 231 741 231Q914 231 1042 326T1171 541Q1171 665 1061 729Q971 782 838 782Q596 782 431
654T266 350Q266 168 430 75Q563 0 760 0Q1051 0 1260 163Q1430 296 1595 582Q1495 537 1393 471Q1345 439 1282 406L1279 408Q1279 409 1278 412Q1278 442 1427 526Q1526 581 1614 621Q1767 900 1989 1169Q1772 1059 1694 1059Q1550 1059 1550 1229Q1550 1247
1555 1281T1561 1333Q1561 1393 1530 1393Q1436 1393 1289 1242Q1190 1141 1098 1009Q1077 978 1042 944L1038 948Q1037 950 1036 954Q1036 968 1072 1025Q1155 1154 1293 1285Q1466 1448 1575 1448Q1698 1448 1698 1296Q1698 1274 1694 1232T1690 1167Q1690 1102
1741 1102Q1846 1102 2098 1277T2372 1452Q2404 1452 2404 1425Q2404 1398 2294 1348T2124 1237Q2054 1166 1812 682Q1931 720 2171 791Q2381 1075 2612 1254T2978 1434Q3095 1434 3095 1325Q3095 1149 2788 984Q2594 879 2327 801Q2058 316 2058 127Q2058 39 2118
39Q2180 39 2307 165T2431 291Q2443 291 2443 281Q2443 253 2337 152Q2242 61 2197 33Q2135 -6 2089 -6Q2018 -6 1980 70Q1950 131 1950 209Q1950 422 2144 752Q1959 699 1794 643Z" />
<glyph unicode="I" glyph-name="I" horiz-adv-x="1772" d="M1647 707Q1972 1268 2298 1413Q1925 1377 1709 1232Q1489 1085 1489 887Q1489 719 1647 707ZM1782 664Q1635 353 1399 180Q1145 -6 817 -6Q600 -6 447 94Q270 210 270 416Q270 611 434 752T840 893Q1002
893 1115 812Q1243 721 1243 565Q1243 405 1100 308Q974 223 807 223Q710 223 631 251Q549 280 549 303Q549 304 550 308L553 309Q561 308 591 296Q705 250 803 250Q974 250 1092 339T1210 549Q1210 681 1113 748Q1029 807 891 807Q658 807 499 682T340 381Q340
203 492 106Q621 23 809 23Q1091 23 1307 217Q1475 369 1624 664Q1521 676 1460 735Q1395 797 1395 899Q1395 1152 1775 1312Q2079 1440 2376 1440Q2403 1440 2410 1434Q2370 1419 2284 1376Q2139 1285 2005 1074Q1940 972 1806 707Q1887 720 1952 766Q2013 817
2073 868L2076 867L2077 864Q2076 821 1987 753T1782 664Z" />
<glyph unicode="J" glyph-name="J" horiz-adv-x="1894" d="M1485 -37Q1305 -306 1087 -472Q820 -676 547 -676Q336 -676 192 -555Q39 -427 39 -219Q39 -7 188 133Q334 270 547 270Q685 270 776 184T868 -39Q868 -152 813 -221Q957 -121 1350 -39Q1459 170 1675
590Q1571 599 1509 657Q1442 719 1442 821Q1442 1059 1732 1237Q1944 1367 2238 1433Q2385 1466 2456 1466Q2484 1466 2490 1456Q2487 1448 2415 1406Q2336 1359 2277 1300Q2117 1139 1864 629Q1982 657 2103 774Q2116 788 2142 805L2145 804L2146 801Q2145 759
2068 698Q2007 649 1952 624Q1901 601 1844 590Q1676 279 1511 2Q1711 85 1869 259Q1898 291 1903 291Q1913 291 1913 281Q1913 241 1784 134T1485 -37ZM1696 621Q2026 1242 2417 1436Q2020 1387 1784 1213Q1544 1036 1544 811Q1544 634 1696 621ZM1329 -76Q991
-138 815 -252Q808 -257 708 -345Q635 -410 596 -410Q553 -410 553 -379Q553 -339 626 -301Q739 -242 763 -222Q836 -162 836 -68Q836 50 756 117Q681 180 561 180Q376 180 237 58Q92 -70 92 -252Q92 -431 226 -542Q352 -647 535 -647Q982 -647 1329 -76Z" />
<glyph unicode="K" glyph-name="K" horiz-adv-x="2441" d="M2015 1241Q1797 1114 1706 1114Q1642 1114 1601 1156T1559 1262Q1559 1274 1561 1297T1563 1331Q1563 1386 1513 1386Q1460 1386 1370 1313Q1228 1199 1107 987Q1089 954 1059 918L1056 920Q1055 923
1055 928Q1055 955 1097 1029Q1177 1169 1303 1292Q1462 1446 1583 1446Q1639 1446 1671 1407Q1699 1373 1702 1255Q1705 1165 1763 1165Q1853 1165 2079 1305T2310 1446Q2339 1446 2339 1427Q2339 1396 2254 1360Q2100 1294 2005 1157Q1952 1080 1854 886Q1754
687 1692 590Q1309 -12 705 -12Q481 -12 335 82Q162 194 162 406Q162 607 332 749T752 891Q911 891 1024 818Q1155 733 1155 582Q1155 408 1002 308Q869 221 686 221Q587 221 507 250Q475 261 459 270Q424 287 424 303Q426 309 440 309Q443 309 462 301Q586 248
694 248Q849 248 971 327Q1112 418 1112 563Q1112 687 1000 750Q910 801 776 801Q548 801 386 674T223 371Q223 186 369 94Q491 16 686 16Q996 16 1209 192Q1361 318 1557 636Q1804 1035 2015 1241ZM1909 702Q2122 633 2122 410Q2122 360 2104 263T2085 115Q2085
39 2144 39Q2202 39 2326 165T2449 291Q2462 291 2462 281Q2462 260 2360 159Q2267 66 2229 40Q2169 -2 2124 -2Q2047 -2 1998 88Q1956 164 1956 248Q1956 298 1973 396T1991 545Q1991 597 1956 633T1868 670Q1861 670 1847 669T1825 668Q1794 668 1794 692Q1794
714 1829 719Q1856 721 1882 723Q1986 737 2116 856Q2160 896 2277 1034Q2618 1438 2900 1438Q2972 1438 3025 1402Q3086 1361 3086 1292Q3086 1255 3062 1229T3000 1202Q2973 1202 2953 1223T2933 1272Q2933 1287 2945 1315T2957 1358Q2957 1407 2882 1407Q2752
1407 2415 1026Q2290 885 2173 811T1909 702Z" />
<glyph unicode="L" glyph-name="L" horiz-adv-x="1597" d="M672 121Q441 205 332 205Q188 205 188 123Q188 70 264 41Q320 20 385 20Q536 20 672 121ZM1087 716Q975 698 868 698Q672 698 534 786Q373 890 373 1075Q373 1281 542 1401Q693 1507 907 1507Q1234 1507
1470 1247Q1712 1456 1833 1456Q1878 1456 1907 1429T1937 1356Q1937 1184 1680 994Q1501 862 1268 764Q1065 358 813 160Q1038 74 1210 74Q1317 74 1417 134Q1480 172 1556 247Q1619 309 1632 311L1635 310Q1636 308 1636 305Q1636 278 1554 203Q1322 -10 1145
-10Q1023 -10 727 100Q540 -6 383 -6Q297 -6 233 19Q145 54 145 127Q145 252 352 252Q481 252 743 178Q845 251 1087 716ZM1307 846Q1575 944 1741 1084T1907 1343Q1907 1423 1827 1423Q1699 1423 1513 1196Q1587 1096 1587 1069Q1587 1065 1586 1060L1581 1057Q1545
1104 1495 1169Q1380 1010 1307 846ZM1135 807Q1288 1063 1448 1225Q1223 1481 901 1481Q713 1481 576 1392Q418 1288 418 1110Q418 944 606 850Q735 786 926 786Q1009 786 1135 807Z" />
<glyph unicode="M" glyph-name="M" horiz-adv-x="2617" d="M2353 1350Q2020 1106 1653 707L1550 595Q1468 506 1302 330Q1251 276 1141 176Q914 -6 688 -6Q483 -6 349 98Q201 213 201 412Q201 617 371 746Q525 864 737 864Q894 864 1004 788Q1128 702 1128 551Q1128
392 992 293Q869 203 705 203Q597 203 505 244Q410 285 410 313Q410 318 412 323L418 326Q426 323 442 313Q580 229 713 229Q851 229 961 304Q1085 388 1085 520Q1085 647 972 715Q878 772 743 772Q545 772 404 683Q238 579 238 391Q238 219 378 116Q504 23 682
23Q807 23 917 69Q1051 125 1218 284Q1294 357 1476 558Q1928 1056 2232 1298Q2303 1354 2345 1384Q2436 1449 2464 1450L2468 1448Q2469 1445 2470 1442Q2470 1423 2424 1374Q2339 1283 2263 1178Q2130 992 1935 664Q1688 249 1688 150Q1688 144 1690 138L1696
135Q1732 136 1972 427Q2228 737 2353 880Q2574 1131 2763 1307Q2915 1448 2953 1448Q2954 1448 2955 1447T2957 1442Q2957 1429 2865 1288Q2513 749 2371 450Q2249 193 2249 92Q2249 43 2298 43Q2355 43 2436 107Q2487 148 2561 227Q2620 291 2626 291Q2638 291
2638 281Q2638 262 2560 182Q2377 -6 2263 -6Q2197 -6 2160 47Q2128 94 2128 162Q2128 477 2802 1298Q2696 1214 2544 1050Q2387 880 2109 547Q1866 255 1859 247Q1650 10 1591 10Q1530 10 1530 113Q1530 333 1858 772Q2075 1062 2353 1350Z" />
<glyph unicode="N" glyph-name="N" horiz-adv-x="2259" d="M1954 1235Q1840 1034 1725 833Q1589 595 1474 452Q1319 259 1133 142Q893 -10 641 -10Q420 -10 270 86Q94 198 94 408Q94 639 276 772Q439 891 678 891Q849 891 957 823Q1087 741 1087 580Q1087 435
957 330T633 225Q587 225 524 236Q438 250 434 274Q438 281 449 281Q449 281 511 268T625 254Q782 254 904 326Q1049 411 1049 557Q1049 686 934 753Q841 807 702 807Q468 807 307 677T145 362Q145 187 315 94Q453 18 643 18Q1227 18 1704 852Q1796 1019 1993 1343Q2022
1386 2036 1405Q2072 1453 2089 1454L2095 1451Q2097 1446 2097 1440Q2097 1433 2085 1400Q2030 1249 2030 1069Q2030 1024 2031 933T2032 797Q2032 471 1968 186Q2631 1454 2963 1454Q3056 1454 3056 1374Q3056 1341 3033 1316T2976 1290Q2935 1290 2909 1335T2865
1380Q2797 1380 2649 1211Q2392 918 2032 250Q1892 -10 1876 -10Q1862 -10 1862 12Q1862 15 1866 25Q1907 132 1907 258Q1907 332 1889 480T1870 702Q1870 917 1954 1235Z" />
<glyph unicode="O" glyph-name="O" horiz-adv-x="1442" d="M1163 1212Q1007 1119 899 966Q780 796 780 631Q780 556 821 502Q865 442 938 442Q1060 442 1165 593T1270 932Q1270 1111 1163 1212ZM1196 1225Q1343 1061 1343 866Q1343 737 1278 620Q1212 500 1102
438Q1026 395 956 395Q856 395 801 466Q750 530 750 633Q750 802 873 976Q981 1129 1141 1233Q1092 1272 1038 1298Q816 1126 664 865Q500 582 500 322Q500 191 558 113Q624 25 750 25Q866 25 1008 108Q1222 233 1387 481Q1561 745 1561 979Q1561 1093 1507 1171Q1446
1260 1337 1260Q1270 1260 1196 1225ZM1169 1248Q1261 1288 1323 1288Q1458 1288 1527 1191Q1587 1106 1587 965Q1587 805 1506 629Q1395 389 1183 202Q941 -12 707 -12Q543 -12 453 112Q373 223 373 393Q373 654 566 923Q726 1145 977 1323Q895 1343 831 1343Q637
1343 488 1231T276 932Q260 844 231 754Q223 759 223 780Q223 1020 403 1196T825 1372Q911 1372 1004 1343Q1252 1485 1419 1485Q1540 1485 1614 1426Q1694 1361 1694 1243Q1694 1165 1671 1165Q1661 1169 1661 1186Q1661 1194 1663 1211T1665 1237Q1665 1452 1430
1452Q1254 1452 1069 1317Q1126 1284 1169 1248Z" />
<glyph unicode="P" glyph-name="P" horiz-adv-x="1720" d="M1133 1386Q954 1350 791 1238Q625 1123 535 969Q469 855 469 758Q469 669 519 617T659 565Q802 565 954 710Q1085 836 1150 987Q1200 1104 1200 1214Q1200 1325 1133 1386ZM1806 1346Q1693 1255 1498
892Q1438 780 1311 559Q1163 320 984 172Q759 -12 524 -12Q428 -12 357 26Q270 74 270 162Q270 208 296 243T367 279Q403 279 428 253T453 190Q453 174 441 144T428 98Q428 58 478 37Q517 20 563 20Q723 20 870 163Q1013 302 1217 670Q1376 957 1500 1105T1778
1364Q1644 1423 1470 1423Q1328 1423 1192 1397Q1276 1303 1276 1155Q1276 969 1165 803Q1057 642 886 562Q772 508 674 508Q562 508 498 570T434 745Q434 852 508 978Q600 1134 766 1252Q927 1367 1108 1411Q1012 1475 891 1475Q744 1475 607 1393Q480 1317 389
1190Q350 1135 319 1067Q289 1004 283 1004Q279 1004 277 1007Q274 1014 274 1018Q274 1046 306 1111Q388 1281 549 1391Q716 1505 899 1505Q1047 1505 1159 1421Q1324 1454 1468 1454Q1648 1454 1819 1395Q1918 1454 1929 1454Q1942 1454 1942 1446Q1942 1439
1902 1413Q1877 1396 1851 1380Q2075 1238 2075 1028Q2075 873 1953 756T1675 639Q1625 639 1560 656Q1475 679 1475 713Q1475 717 1477 720T1483 723Q1487 723 1504 715Q1564 686 1620 686Q1764 686 1858 825Q1942 949 1942 1100Q1942 1260 1806 1346Z" />
<glyph unicode="Q" glyph-name="Q" horiz-adv-x="1616" d="M1210 1421Q1307 1330 1307 1167Q1307 982 1199 817Q1093 657 925 572Q806 512 711 512Q602 512 542 574T481 745Q481 943 662 1136T1133 1430Q1052 1489 934 1489Q741 1489 579 1359Q432 1240 352 1051Q342
1025 319 997Q311 1001 311 1014Q311 1033 339 1096Q417 1274 578 1392Q747 1516 934 1516Q1068 1516 1186 1442Q1268 1464 1341 1464Q1512 1464 1610 1361T1708 1085Q1708 571 870 145Q1103 57 1208 57Q1308 57 1417 123Q1490 167 1574 247Q1644 313 1649 313Q1650
313 1655 312Q1657 309 1657 307Q1657 280 1565 199Q1327 -10 1104 -10Q984 -10 743 78Q562 -2 408 -2Q321 -2 259 23Q172 57 172 129Q172 196 248 229Q305 254 381 254Q533 254 825 162Q1105 284 1337 582Q1583 898 1583 1186Q1583 1299 1508 1368Q1435 1434 1321
1434Q1284 1434 1210 1421ZM1157 1409Q876 1318 695 1130T514 754Q514 668 560 617Q607 563 692 563Q839 563 991 716Q1122 847 1184 1005Q1227 1113 1227 1214Q1227 1341 1157 1409ZM705 96Q462 203 319 203Q209 203 209 127Q209 25 414 25Q557 25 705 96Z" />
<glyph unicode="R" glyph-name="R" horiz-adv-x="2036" d="M1122 1397Q830 1321 637 1134T444 756Q444 567 627 567Q772 567 929 711Q1067 838 1133 989Q1182 1102 1182 1210Q1182 1331 1122 1397ZM1788 1346Q1676 1256 1480 892Q1361 671 1292 559Q1144 319 965
173Q740 -12 506 -12Q410 -12 339 26Q252 74 252 162Q252 208 276 241Q302 279 346 279Q382 279 408 253T434 190Q434 174 422 144T410 98Q410 58 460 37Q499 20 545 20Q704 20 851 163Q993 302 1198 670Q1359 960 1482 1107T1757 1364Q1629 1436 1401 1436Q1282
1436 1174 1407Q1251 1298 1251 1161Q1251 977 1143 813T865 570Q753 518 657 518Q541 518 477 579Q410 641 410 756Q410 945 606 1140T1098 1421Q1005 1485 858 1485Q717 1485 573 1396Q439 1313 354 1188Q330 1152 305 1095Q273 1021 262 1001Q248 1001 248 1016Q248
1046 282 1116Q366 1291 526 1400Q691 1513 881 1513Q1046 1513 1151 1434Q1285 1464 1407 1464Q1638 1464 1800 1395Q1896 1454 1909 1454Q1921 1454 1921 1446Q1921 1445 1833 1380Q2034 1277 2034 1096Q2034 943 1889 827Q1761 723 1599 702Q1759 614 1759 459Q1759
388 1727 262T1694 102Q1694 39 1741 39Q1806 39 1927 165T2042 291Q2054 291 2054 283Q2054 275 2034 246Q1978 166 1894 91Q1787 -4 1718 -4Q1648 -4 1606 75Q1571 141 1571 217Q1571 278 1601 397T1632 571Q1632 676 1561 676Q1548 676 1521 673T1481 670Q1419
670 1419 709Q1419 748 1479 748Q1498 748 1534 739T1589 729Q1689 729 1791 855T1894 1139Q1894 1273 1788 1346Z" />
<glyph unicode="S" glyph-name="S" horiz-adv-x="1608" d="M1694 877Q1922 930 2082 1073T2243 1341Q2243 1423 2163 1423Q2047 1423 1884 1227Q1950 1146 1950 1108Q1949 1105 1947 1101L1942 1098Q1934 1099 1904 1144Q1885 1173 1866 1202Q1775 1084 1694 877ZM1532
848Q1644 1078 1821 1257Q1646 1481 1358 1481Q1212 1481 1102 1411Q975 1329 975 1190Q975 1053 1121 950T1477 846Q1486 846 1504 847T1532 848ZM1671 825Q1342 -10 707 -10Q492 -10 342 90Q170 205 170 410Q170 605 333 742T733 879Q894 879 1000 806Q1122 723
1122 569Q1122 408 992 312Q876 225 709 225Q609 225 527 251Q494 261 479 267Q443 282 442 297L444 301L446 303Q452 302 537 277T700 252Q853 252 965 327Q1092 413 1092 559Q1092 686 984 752Q894 807 758 807Q541 807 384 677T227 369Q227 192 381 98Q510 20
698 20Q972 20 1159 197T1509 798Q1439 793 1405 793Q1193 793 1057 900T920 1163Q920 1328 1061 1425Q1185 1509 1358 1509Q1652 1509 1841 1280Q2046 1450 2165 1450Q2271 1450 2271 1339Q2271 1205 2103 1056T1671 825Z" />
<glyph unicode="T" glyph-name="T" horiz-adv-x="1849" d="M1876 1206Q1876 1167 1784 1034Q1610 782 1343 782Q1221 782 1143 839Q1055 903 1055 1020Q1055 1123 1138 1213Q1284 1373 1632 1423Q1809 1448 2187 1448H2402Q2533 1448 2687 1464Q2706 1466 2714
1466Q2733 1466 2736 1458Q2736 1421 2639 1379T2408 1337Q2328 1337 2103 1359T1737 1382Q1450 1382 1267 1279T1083 1024Q1083 941 1144 891Q1202 844 1286 844Q1448 844 1600 943Q1734 1031 1835 1179Q1847 1198 1872 1219L1875 1217Q1876 1212 1876 1206ZM2294
1292Q2294 1288 2274 1275Q2152 1193 2046 1018Q2019 973 1883 721Q1784 539 1704 434Q1365 -10 782 -10Q550 -10 394 85Q205 198 205 416Q205 614 366 750T776 887Q932 887 1040 816Q1165 733 1165 584Q1165 412 1035 316Q918 229 741 229Q645 229 564 258Q479
287 479 307Q479 311 482 313T489 315Q497 315 525 304Q644 258 737 258Q896 258 1008 337Q1135 427 1135 580Q1135 703 1024 765Q935 815 801 815Q582 815 421 683T260 379Q260 189 437 93Q579 16 786 16Q1143 16 1377 238Q1500 354 1726 725Q1933 1067 2118 1210Q2233
1298 2279 1298Q2285 1298 2289 1296T2294 1292Z" />
<glyph unicode="U" glyph-name="U" horiz-adv-x="1767" d="M987 1411Q738 1332 580 1179T422 870Q422 715 569 715Q748 715 907 900Q1061 1078 1061 1260Q1061 1359 987 1411ZM1419 418Q1302 275 1175 160Q987 -10 883 -10Q768 -10 768 147Q768 307 969 612L1229
1006Q1337 1170 1337 1264Q1337 1430 1122 1430Q1083 1430 1032 1421Q1120 1352 1120 1206Q1120 1004 961 830Q798 651 598 651Q502 651 445 706T387 858Q387 1020 547 1183T954 1427Q884 1456 813 1456Q628 1456 457 1319Q304 1196 219 1014Q176 922 158 821Q150
773 135 723Q125 729 125 756Q125 844 164 956Q239 1172 414 1320Q602 1481 819 1481Q913 1481 999 1442Q1075 1456 1139 1456Q1409 1456 1409 1186Q1409 1076 1340 937Q1303 863 1204 711L969 350Q840 152 840 88Q840 31 903 31Q1005 31 1207 230T1616 750L2054
1430L2226 1440L1534 358Q1411 166 1411 84Q1411 37 1452 37Q1528 37 1653 164T1776 291Q1788 291 1788 281Q1788 257 1682 155Q1585 61 1546 36Q1484 -4 1440 -4Q1343 -4 1343 145Q1343 258 1419 418Z" />
<glyph unicode="V" glyph-name="V" horiz-adv-x="1391" d="M1286 1147Q1413 1166 1503 1242T1593 1393Q1593 1452 1544 1452Q1396 1452 1286 1147ZM813 74Q960 184 1135 369Q1307 551 1561 866Q1723 1067 1762 1114Q1886 1262 1978 1349Q2103 1468 2171 1468Q2202
1468 2223 1446T2245 1393Q2245 1360 2223 1337T2167 1313Q2146 1313 2113 1330T2071 1348Q1996 1348 1667 945Q1422 645 1315 522Q1112 291 931 130Q742 -39 705 -39Q688 -39 688 -20Q688 -7 744 77T840 244Q910 386 1000 680Q1092 979 1157 1116Q1048 1119 975
1203Q972 1206 873 1358Q819 1440 758 1440Q577 1440 407 1280Q233 1116 233 934Q233 858 275 807Q321 752 395 752Q514 752 622 849Q712 930 772 1053Q795 1101 814 1167T844 1233Q856 1233 856 1184Q856 984 733 829T444 674Q334 674 269 745Q205 813 205 924Q205
1148 411 1320Q608 1485 836 1485Q946 1485 1012 1407Q1041 1371 1093 1256Q1133 1168 1174 1157Q1376 1483 1538 1483Q1622 1483 1622 1393Q1622 1288 1500 1204Q1398 1135 1280 1114Q1173 582 813 74Z" />
<glyph unicode="W" glyph-name="W" horiz-adv-x="1919" d="M823 96Q1064 309 1411 760Q1618 1030 1765 1188Q1823 1249 1937 1393Q1989 1470 2021 1470Q2046 1470 2046 1438Q2046 1415 2004 1369Q1974 1337 1944 1305Q1874 1218 1802 971Q1668 509 1341 74Q1488
184 1663 369Q1802 516 2004 762Q2277 1096 2334 1162T2508 1351Q2630 1468 2697 1468Q2728 1468 2750 1446T2773 1393Q2773 1360 2750 1337T2693 1313Q2673 1313 2641 1330T2599 1348Q2524 1348 2190 939Q1994 699 1855 539Q1641 292 1458 130Q1269 -39 1231 -39Q1214
-39 1214 -20Q1214 -4 1272 77T1370 238Q1404 307 1517 616T1749 1133Q1643 1019 1417 723Q1071 270 820 50Q721 -37 698 -37Q682 -37 682 -20Q682 -7 738 76T836 244Q905 385 995 680Q1085 979 1151 1116Q1043 1119 969 1203Q966 1206 867 1358Q813 1440 752 1440Q682
1440 593 1404Q446 1343 342 1219Q229 1082 229 934Q229 858 270 807Q315 752 389 752Q536 752 659 892Q762 1008 809 1168Q817 1198 838 1233Q850 1224 850 1192Q850 986 728 830T438 674Q329 674 264 744T199 924Q199 1145 406 1319Q603 1485 829 1485Q940 1485
1006 1407Q1035 1372 1087 1256Q1127 1169 1169 1157Q1235 1276 1319 1364Q1433 1483 1532 1483Q1620 1483 1620 1393Q1620 1311 1521 1227T1276 1114Q1155 573 823 96ZM1286 1147Q1413 1166 1503 1242T1593 1393Q1593 1452 1544 1452Q1397 1452 1286 1147Z" />
<glyph unicode="X" glyph-name="X" horiz-adv-x="1495" d="M993 1405Q776 1329 632 1173T487 872Q487 752 600 752Q747 752 908 927T1069 1251Q1069 1345 993 1405ZM1031 1415Q1110 1354 1110 1233Q1110 1080 1016 942Q925 808 783 741Q692 698 616 698Q455 698
455 864Q455 1019 600 1183T965 1423Q909 1454 834 1454Q634 1454 464 1308Q314 1178 231 977Q201 906 184 829Q176 794 160 756Q150 759 150 776Q150 825 177 909Q248 1138 414 1300Q600 1483 821 1483Q921 1483 1005 1434Q1071 1452 1122 1452Q1253 1452 1323
1363Q1386 1282 1386 1147Q1386 1107 1382 1071Q1515 1214 1658 1314Q1850 1448 1989 1448Q2122 1448 2122 1313Q2122 1152 1931 1022T1294 754Q1071 375 1071 141Q1071 23 1157 23Q1216 23 1303 92Q1359 138 1436 222Q1499 291 1503 291Q1516 291 1516 281Q1516
258 1408 152Q1308 52 1270 29Q1207 -10 1147 -10Q997 -10 997 227Q997 263 1010 346Q871 202 721 108Q530 -10 373 -10Q294 -10 239 28Q176 71 176 147Q176 480 1139 741Q1309 1031 1309 1214Q1309 1425 1118 1425Q1079 1425 1031 1415ZM1120 705Q262 481 262
147Q262 23 393 23Q580 23 815 281Q974 456 1120 705ZM1311 791Q1732 918 1909 1039Q2091 1163 2091 1311Q2091 1417 1997 1417Q1872 1417 1681 1247T1311 791Z" />
<glyph unicode="Y" glyph-name="Y" horiz-adv-x="1929" d="M1810 739Q1473 389 1305 389Q1194 389 1194 532Q1194 649 1285 805Q1369 933 1453 1061Q1544 1201 1544 1278Q1544 1444 1323 1444Q1162 1444 988 1350T728 1120Q674 1036 674 969Q674 825 831 825Q966
825 1094 925Q1212 1018 1272 1149Q1297 1204 1318 1277Q1337 1343 1343 1343Q1356 1343 1356 1303Q1356 1185 1296 1057Q1155 756 866 756Q772 756 709 803Q639 855 639 946Q639 1037 700 1133Q790 1275 974 1373Q1155 1470 1325 1470Q1458 1470 1534 1398T1610
1192Q1610 1096 1531 954Q1463 844 1395 734Q1266 519 1266 479Q1266 428 1319 428Q1463 428 1697 673Q1803 784 1999 1038Q2148 1231 2310 1357Q2478 1489 2535 1489Q2562 1489 2562 1470Q2562 1450 2500 1425Q2375 1375 2295 1294Q2209 1207 2105 1018Q2084 981
1950 715Q1706 231 1498 29Q1196 -264 748 -264Q523 -264 369 -175Q180 -66 180 143Q180 347 346 492T752 637Q912 637 1018 565Q1139 481 1139 328Q1139 163 999 62Q874 -29 702 -29Q561 -29 557 10L559 15Q563 16 569 16Q586 16 631 9T702 2Q852 2 966 80Q1096
167 1096 311Q1096 436 995 502Q910 557 778 557Q589 557 421 437Q236 305 236 123Q236 -56 403 -154Q541 -236 733 -236Q1067 -236 1302 -30T1810 739Z" />
<glyph unicode="Z" glyph-name="Z" horiz-adv-x="1677" d="M1573 1112Q1633 1098 1696 1098Q1854 1098 1972 1175T2091 1346Q2091 1419 2009 1419Q1839 1419 1573 1112ZM940 469Q875 487 776 487Q531 487 364 379T197 131Q197 20 322 20Q574 20 940 469ZM997 453Q568
-10 319 -10Q166 -10 166 129Q166 288 362 412T823 537Q897 537 985 522Q1138 711 1458 1077Q1373 1101 1325 1152Q1288 1191 1245 1283Q1180 1421 1069 1421Q893 1421 719 1267Q541 1108 541 934Q541 853 586 798Q634 739 713 739Q831 739 942 850Q1032 940 1090
1069Q1105 1103 1126 1171Q1132 1197 1151 1225Q1159 1220 1159 1200Q1159 1160 1145 1096Q1109 928 1012 815Q898 682 741 682Q636 682 572 749T508 922Q508 1129 714 1301Q911 1464 1122 1464Q1242 1464 1310 1408Q1357 1368 1425 1245Q1471 1163 1511 1137Q1816
1450 2007 1450Q2122 1450 2122 1348Q2122 1229 1974 1143T1606 1057Q1592 1057 1565 1057Q1538 1058 1525 1058Q1364 872 1040 500Q1162 453 1213 380Q1253 323 1286 182Q1318 47 1368 47Q1436 47 1564 169T1686 291Q1696 291 1696 281Q1696 270 1667 234Q1594
145 1507 80Q1395 -4 1309 -4Q1221 -4 1170 94Q1144 146 1116 270Q1084 415 997 453Z" />
<glyph unicode="[" glyph-name="bracketleft" horiz-adv-x="664" d="M1170 1477Q1206 1477 1206 1456Q1206 1436 1167 1436H946L-2 -96H227Q264 -96 264 -115Q264 -137 228 -137H-48Q-94 -137 -94 -113Q-94 -100 -57 -39L831 1417Q868 1477 940 1477H1170Z" />
<glyph unicode="\" glyph-name="backslash" horiz-adv-x="606" d="M465 1130L514 -182L494 -190L373 1130H465Z" />
<glyph unicode="]" glyph-name="bracketright" horiz-adv-x="664" d="M-296 -137Q-332 -137 -332 -117Q-332 -96 -293 -96H-72L877 1436H647Q610 1436 610 1454Q610 1477 644 1477H923Q969 1477 969 1452Q969 1439 932 1378L43 -78Q7 -137 -66 -137H-296Z" />
<glyph unicode="^" glyph-name="asciicircum" horiz-adv-x="2048" d="M946 1462H1098L1632 897H1548L1022 1362L492 897H412L946 1462Z" />
<glyph unicode="_" glyph-name="underscore" horiz-adv-x="1024" d="M0 -403H1024V-483H0V-403Z" />
<glyph unicode="`" glyph-name="grave" horiz-adv-x="1024" d="M741 616Q741 602 727 602Q690 602 606 705T522 877Q522 961 588 961Q617 961 632 943T647 829Q647 762 694 687T741 616Z" />
<glyph unicode="a" glyph-name="a" horiz-adv-x="807" d="M111 90Q111 27 160 27Q231 27 342 147Q432 245 479 334Q524 420 524 483Q524 547 457 547Q346 547 225 372Q111 208 111 90ZM549 438L633 561L768 569L543 215Q467 95 467 55Q467 23 498 23Q545 23 679
157T813 291Q817 291 822 289L825 283Q824 258 713 149Q610 48 572 24Q520 -10 475 -10Q391 -10 391 92Q391 117 401 170Q259 -10 143 -10Q25 -10 25 199Q25 244 38 294Q13 254 -4 254Q-9 254 -14 256L-16 262Q-16 270 10 301Q100 409 205 484Q339 578 449 578Q557
578 557 483Q557 464 549 438Z" />
<glyph unicode="b" glyph-name="b" horiz-adv-x="692" d="M760 1251L250 385Q84 103 84 59Q84 20 145 20Q269 20 360 134Q439 232 461 365Q465 388 471 453Q483 578 543 578Q602 578 602 494Q602 359 473 186Q518 180 508 180Q569 180 643 243Q680 275 717 307L723
304Q725 299 725 295V288Q724 286 700 258Q609 152 492 152Q472 152 444 155Q289 -10 129 -10Q10 -10 10 121Q10 193 90 352Q3 254 -4 254Q-9 254 -11 256T-14 262Q-14 269 27 318Q213 539 356 784L618 1233L760 1251Z" />
<glyph unicode="c" glyph-name="c" horiz-adv-x="575" d="M40 294Q12 256 -4 256Q-9 256 -14 258L-16 264Q-15 279 66 365Q265 578 436 578Q569 578 569 471Q569 435 550 408Q529 377 494 377Q432 377 432 430Q432 454 464 476T496 514Q496 549 453 549Q362 549
246 404T129 115Q129 18 213 18Q284 18 375 89Q434 134 513 220Q578 291 584 291Q596 291 596 281Q596 263 492 158Q326 -10 201 -10Q117 -10 70 61Q29 123 29 211Q29 243 40 294Z" />
<glyph unicode="d" glyph-name="d" horiz-adv-x="807" d="M111 90Q111 27 160 27Q231 27 342 147Q432 245 479 334Q524 420 524 483Q524 547 457 547Q346 547 225 372Q111 208 111 90ZM549 438L1004 1245L1137 1251L578 281Q477 106 477 57Q477 29 510 29Q550
29 681 160T813 291Q817 291 822 289L825 283Q824 258 713 149Q610 48 572 24Q520 -10 475 -10Q391 -10 391 92Q391 117 401 170Q259 -10 143 -10Q25 -10 25 199Q25 244 38 294Q13 254 -4 254Q-9 254 -14 256L-16 262Q-16 270 10 301Q100 409 205 484Q339 578 449
578Q557 578 557 483Q557 464 549 438Z" />
<glyph unicode="e" glyph-name="e" horiz-adv-x="575" d="M152 229Q290 259 387 347T485 512Q485 553 449 553Q382 553 292 460T152 229ZM41 297Q9 256 -4 256Q-8 256 -11 258T-14 264Q-14 278 66 365Q262 578 440 578Q553 578 553 483Q553 377 393 290Q283 229
141 197Q131 135 131 115Q131 20 213 20Q285 20 376 90Q434 135 513 221Q578 291 584 291Q596 291 596 281Q596 263 492 158Q326 -10 203 -10Q120 -10 71 61Q29 124 29 211Q29 251 41 297Z" />
<glyph unicode="f" glyph-name="f" horiz-adv-x="451" d="M102 29H113Q173 29 258 97Q313 140 390 223Q454 291 459 291Q471 291 471 281Q471 253 322 113Q249 45 191 13Q130 -20 76 -20L-207 -586L-352 -602L-27 0Q-59 28 -59 57Q-59 125 4 125Q15 125 37 115L246
506Q163 432 84 343T-6 254Q-7 254 -12 256Q-13 258 -14 262Q-14 280 77 381Q143 454 238 546Q267 571 307 612Q315 627 330 656Q497 969 625 1121Q762 1282 874 1282Q914 1282 941 1253T969 1184Q969 973 342 516L102 29ZM377 584Q617 745 770 924T924 1194Q924
1253 868 1253Q704 1253 377 584Z" />
<glyph unicode="g" glyph-name="g" horiz-adv-x="756" d="M291 -82Q-178 -353 -178 -549Q-178 -618 -119 -618Q26 -618 291 -82ZM111 90Q111 27 160 27Q231 27 342 147Q432 245 479 334Q524 420 524 483Q524 547 457 547Q346 547 225 372Q111 208 111 90ZM549
438L633 561L758 569Q576 273 432 -4Q559 78 764 291Q774 291 774 281Q774 253 662 146T403 -51Q90 -647 -129 -647Q-233 -647 -233 -545Q-233 -419 -14 -250Q91 -168 313 -39L418 186Q249 -10 143 -10Q25 -10 25 199Q25 244 38 294Q13 254 -4 254Q-9 254 -14 256L-16
262Q-15 271 10 301Q98 408 205 484Q340 578 449 578Q557 578 557 483Q557 464 549 438Z" />
<glyph unicode="h" glyph-name="h" horiz-adv-x="772" d="M-86 -2L209 469Q9 254 -2 254Q-7 254 -12 256L-14 262Q11 291 127 422Q271 584 387 784L649 1233L782 1251L203 262Q492 580 578 580Q655 580 655 479Q655 406 545 252T434 57Q434 20 467 20Q515 20 649
155T782 291Q793 291 793 281Q793 251 656 123Q514 -10 465 -10Q367 -10 367 135Q367 222 477 361T588 522Q588 547 565 547Q457 547 39 12L-86 -2Z" />
<glyph unicode="i" glyph-name="i" horiz-adv-x="451" d="M182 449Q132 396 83 343Q1 256 -6 256Q-7 256 -12 258L-14 262Q-13 292 246 559L393 569L190 250Q90 93 90 57Q90 18 125 18Q192 18 324 154T459 291Q471 291 471 281Q471 259 361 152Q261 53 221 27Q167
-10 127 -10Q16 -10 16 119Q16 173 82 289Q132 369 182 449ZM434 891Q434 924 460 953T518 983Q573 983 573 924Q573 891 549 861T492 831Q434 831 434 891Z" />
<glyph unicode="j" glyph-name="j" horiz-adv-x="412" d="M221 492Q-3 254 -4 254Q-14 254 -14 262Q-14 276 33 330L233 559L379 569Q228 251 90 -4Q217 83 420 291L429 289L432 283Q431 255 322 150T63 -51Q-250 -647 -469 -647Q-573 -647 -573 -545Q-573 -419
-355 -251Q-249 -169 -27 -39L221 492ZM-51 -82Q-520 -353 -520 -549Q-520 -618 -461 -618Q-316 -618 -51 -82ZM369 891Q369 924 394 953T451 983Q506 983 506 924Q506 891 481 861T424 831Q369 831 369 891Z" />
<glyph unicode="k" glyph-name="k" horiz-adv-x="793" d="M383 311Q323 281 287 281Q244 281 244 315Q244 358 311 358Q343 358 375 340Q417 348 519 467Q615 580 690 580Q770 580 770 508Q770 440 711 440Q681 440 661 482T629 524Q620 524 562 436T416 324Q498
273 498 201Q498 171 480 119T461 47Q461 20 489 20Q533 20 666 155T799 291Q811 291 811 281Q811 257 704 153Q611 62 571 33Q512 -10 477 -10Q424 -10 388 43Q356 90 356 145Q356 173 371 221T387 285Q387 294 383 311ZM37 12L-86 -2L209 469Q9 254 -2 254Q-7
254 -12 256L-14 262Q14 294 127 422Q270 584 387 784L649 1233L780 1251L37 12Z" />
<glyph unicode="l" glyph-name="l" horiz-adv-x="451" d="M180 449Q132 395 83 342Q3 254 -4 254Q-14 254 -14 262Q-14 280 115 421Q258 578 276 606L680 1233L813 1251L182 250Q82 91 82 57Q82 18 119 18Q187 18 323 154T459 291Q471 291 471 281Q471 259 361
152Q260 53 221 27Q167 -10 127 -10Q16 -10 16 119Q16 183 180 449Z" />
<glyph unicode="m" glyph-name="m" horiz-adv-x="1247" d="M27 -2L295 397Q360 494 360 520Q360 547 332 547Q274 547 136 401T-4 254Q-14 254 -14 262Q-14 279 98 401Q262 580 340 580Q420 580 420 483Q420 394 338 262Q590 580 694 580Q776 580 776 494Q776
390 690 266Q967 580 1051 580Q1128 580 1128 479Q1128 406 1018 252T907 57Q907 20 940 20Q988 20 1122 155T1255 291Q1268 291 1268 281Q1268 260 1161 156Q1066 63 1025 33Q967 -10 938 -10Q840 -10 840 135Q840 222 950 361T1061 522Q1061 547 1038 547Q943
547 528 12L385 -2L651 397Q715 493 715 522Q715 547 686 547Q605 547 172 12L27 -2Z" />
<glyph unicode="n" glyph-name="n" horiz-adv-x="907" d="M29 -2L295 397Q360 495 360 520Q360 547 332 547Q274 547 136 401T-4 254Q-14 254 -14 262Q-14 279 98 401Q262 580 340 580Q420 580 420 483Q420 394 338 262Q618 578 711 578Q788 578 788 479Q788 404
678 251T567 57Q567 20 600 20Q648 20 782 155T915 291Q928 291 928 281Q928 260 822 156Q726 63 685 33Q627 -10 598 -10Q500 -10 500 135Q500 222 610 361T721 522Q721 545 698 545Q593 545 172 12L29 -2Z" />
<glyph unicode="o" glyph-name="o" horiz-adv-x="680" d="M115 96Q115 23 178 23Q212 23 266 57Q359 115 434 224Q516 343 516 444Q516 547 438 547Q358 547 261 425Q184 327 145 228Q115 152 115 96ZM459 186Q496 180 492 180Q587 180 688 301Q692 306 705 307L711
304Q713 299 713 295Q713 287 688 258Q598 152 479 152Q457 152 433 155Q281 -10 162 -10Q25 -10 25 203Q25 239 41 297Q9 256 -4 256Q-8 256 -11 258T-14 264Q-14 277 70 369Q265 582 430 582Q571 582 571 434Q571 332 459 186Z" />
<glyph unicode="p" glyph-name="p" horiz-adv-x="772" d="M-256 -526L-389 -541L209 469Q9 254 -2 254Q-7 254 -12 256L-14 262Q28 312 132 427Q276 586 518 967L641 977L203 262Q492 580 578 580Q655 580 655 479Q655 406 545 252T434 57Q434 20 467 20Q515 20
649 155T782 291Q793 291 793 281Q793 251 655 123Q514 -10 465 -10Q367 -10 367 135Q367 222 477 361T588 522Q588 547 565 547Q508 547 336 366T14 -68L-256 -526Z" />
<glyph unicode="q" glyph-name="q" horiz-adv-x="743" d="M111 90Q111 27 160 27Q231 27 342 147Q432 245 479 334Q524 420 524 483Q524 547 457 547Q346 547 225 372Q111 208 111 90ZM549 431L633 563L741 569L260 -289Q723 291 756 291Q757 291 763 289L766
285Q764 278 537 6Q305 -271 102 -573L-25 -582L401 172Q259 -8 143 -8Q25 -8 25 201Q25 240 40 294Q12 256 -4 256Q-10 256 -14 258L-16 262Q-14 280 70 367Q276 580 449 580Q555 580 555 483Q555 461 549 431Z" />
<glyph unicode="r" glyph-name="r" horiz-adv-x="676" d="M29 0L295 397Q360 494 360 520Q360 547 332 547Q274 547 136 401T-4 254Q-14 254 -14 262Q-14 279 98 401Q262 580 340 580Q420 580 420 492Q420 403 322 238Q406 322 498 401Q530 486 555 520Q599 580
666 580Q713 580 713 549Q713 514 592 423Q532 378 511 351Q479 310 479 250Q479 195 530 195Q572 195 616 229Q651 261 686 293Q698 291 698 283Q698 252 635 210T535 168Q449 168 449 248Q449 277 475 346Q356 247 172 14L29 0Z" />
<glyph unicode="s" glyph-name="s" horiz-adv-x="446" d="M252 528Q175 450 91 352T-6 254Q-16 254 -16 262Q-16 281 250 567Q286 653 334 653Q375 653 375 614Q375 584 328 563T281 489Q281 448 300 368T319 246Q319 183 293 125Q336 171 379 216Q450 291 455
291Q467 291 467 281Q467 266 387 182Q282 72 214 31T76 -10Q-63 -10 -63 96Q-63 122 -45 142T0 162Q43 162 43 123Q43 113 31 86T18 45Q18 23 49 23Q119 23 187 150T256 451Q256 463 252 528Z" />
<glyph unicode="t" glyph-name="t" horiz-adv-x="451" d="M182 449Q132 396 83 343Q1 256 -6 256Q-7 256 -12 258L-14 262Q-14 283 105 406T276 606L365 739H266L283 768H383L508 967L641 977L510 768H745L729 739H492L186 250Q90 97 90 57Q90 18 125 18Q190 18
323 154T459 291Q471 291 471 281Q471 259 362 152Q261 54 221 27Q167 -10 127 -10Q16 -10 16 119Q16 173 82 289Q132 369 182 449Z" />
<glyph unicode="u" glyph-name="u" horiz-adv-x="795" d="M453 57Q453 20 485 20Q534 20 667 155T801 291Q813 291 813 283Q813 260 711 159Q623 72 580 39Q515 -10 483 -10Q387 -10 387 129Q387 148 395 188Q224 -10 127 -10Q14 -10 14 119Q14 205 180 448Q131
395 81 342Q1 256 -6 256Q-7 256 -13 258L-16 262Q-15 288 244 559L391 567L188 250Q88 94 88 57Q88 20 121 20Q298 20 618 559L756 567L510 178Q453 88 453 57Z" />
<glyph unicode="v" glyph-name="v" horiz-adv-x="829" d="M610 186Q661 180 645 180Q733 180 838 301Q842 306 856 307L861 305Q862 300 862 295V288Q861 286 838 258Q751 152 629 152Q610 152 581 155Q406 -8 274 -8Q166 -8 166 131Q166 211 262 347T358 524Q358
547 332 547Q275 547 138 401T-4 254Q-14 254 -14 262Q-14 279 98 401Q264 582 344 582Q434 582 434 473Q434 434 419 394Q407 364 318 223Q238 98 238 72Q238 20 289 20Q383 20 492 116T643 348Q655 387 663 468Q674 580 729 580Q784 580 784 512Q784 394 610
186Z" />
<glyph unicode="w" glyph-name="w" horiz-adv-x="1053" d="M395 188Q224 -10 127 -10Q14 -10 14 119Q14 213 178 442Q171 436 80 339Q1 254 -4 254Q-14 254 -14 262Q-14 302 250 559L391 567L188 250Q88 94 88 57Q88 20 121 20Q298 20 618 559L756 567L526 207Q461
105 461 72Q461 20 512 20Q606 20 714 116T864 348Q877 388 885 466Q897 580 952 580Q1008 580 1008 512Q1008 397 831 186Q878 180 868 180Q955 180 1034 270Q1047 286 1068 306Q1071 307 1077 307Q1081 306 1084 304Q1085 299 1085 288Q979 152 852 152Q833 152
804 155Q629 -8 498 -8Q389 -8 389 131Q389 156 395 188Z" />
<glyph unicode="x" glyph-name="x" horiz-adv-x="684" d="M262 178Q97 -10 -4 -10Q-98 -10 -98 63Q-98 129 -37 129Q3 129 15 82T43 35Q71 35 139 89Q268 191 329 367Q358 453 358 508Q358 547 328 547Q274 547 137 401T-4 254Q-14 254 -14 262Q-14 279 98 401Q262
580 338 580Q405 580 426 504Q437 465 436 375Q583 580 686 580Q774 580 774 506Q774 453 719 453Q685 453 666 491T633 530Q604 530 548 472Q471 394 411 282Q344 155 344 61Q344 20 379 20Q427 20 562 155T694 291Q707 291 707 281Q707 258 601 155Q509 64 467
33Q409 -10 375 -10Q316 -10 285 58Q262 110 262 178Z" />
<glyph unicode="y" glyph-name="y" horiz-adv-x="874" d="M412 -82Q-57 -353 -57 -549Q-57 -618 2 -618Q75 -618 167 -503Q253 -394 412 -82ZM596 272Q363 6 252 6Q210 6 186 48Q166 82 166 127Q166 209 262 346T358 520Q358 547 328 547Q274 547 137 401T-4 254Q-14
254 -14 262Q-14 285 99 404Q208 518 252 548Q302 582 344 582Q432 582 432 473Q432 401 334 252T236 76Q236 35 268 35Q330 35 475 186T754 561L879 569Q697 273 553 -4Q666 69 885 291Q895 289 895 281Q895 253 783 146T524 -51Q211 -647 -8 -647Q-113 -647 -113
-545Q-113 -419 107 -250Q212 -169 434 -39L596 272Z" />
<glyph unicode="z" glyph-name="z" horiz-adv-x="676" d="M422 442Q332 418 289 418Q219 418 176 459Q95 356 -4 250L-11 252L-14 256V264Q-14 271 -12 273Q48 343 159 489Q150 516 150 524Q150 588 217 588Q272 588 272 543Q272 530 264 509T256 483Q256 449
322 449Q415 449 499 510T582 571Q610 571 610 549Q610 516 537 477Q488 451 332 329Q243 260 160 188Q271 250 330 250Q410 250 410 174Q410 146 389 98T367 43Q367 20 381 20Q417 20 551 155T684 291Q696 291 696 281Q696 259 586 151Q487 55 449 28Q397 -10
362 -10Q279 -10 279 104Q279 120 287 149T295 193Q295 201 281 201Q193 201 84 117Q54 94 14 44T-49 -6Q-76 -6 -76 18Q-76 43 -54 66Q-29 82 20 117Q43 137 88 175Q267 326 422 442Z" />
<glyph unicode="{" glyph-name="braceleft" horiz-adv-x="1024" d="M844 1516V1469Q691 1467 636 1414T581 1158Q581 1142 581 1109T581 1059Q581 831 518 749Q452 666 279 635Q452 605 518 523Q581 441 581 213Q581 196 581 163T581 113Q581 -90 636 -143T844
-199V-244H834Q596 -244 518 -144Q459 -69 459 137Q459 164 460 226T461 324Q461 481 396 541Q336 596 176 608V664Q338 678 396 731Q461 791 461 948Q461 983 460 1044T459 1131Q459 1343 519 1418Q598 1516 844 1516Z" />
<glyph unicode="|" glyph-name="bar" horiz-adv-x="1024" d="M467 1565H557V-483H467V1565Z" />
<glyph unicode="}" glyph-name="braceright" horiz-adv-x="1024" d="M178 1516H188Q427 1516 506 1415Q565 1339 565 1130Q565 1104 564 1043T563 948Q563 793 621 736T848 664V608Q688 596 628 541Q563 481 563 324Q563 290 564 230Q564 170 564 144Q564 -70
504 -145Q425 -244 178 -244V-199Q332 -197 387 -143T443 109Q443 126 443 163T443 219Q443 440 507 521T745 635Q572 666 508 748T443 1058Q443 1074 443 1107T443 1157Q443 1359 388 1413T178 1469V1516Z" />
<glyph unicode="~" glyph-name="asciitilde" horiz-adv-x="1706" d="M1530 739V647Q1319 500 1143 500Q1043 500 853 570T565 641Q404 641 178 481V573Q385 719 565 719Q666 719 855 650T1143 580Q1303 580 1530 739Z" />
<glyph unicode="&#x80;" glyph-name="euro" horiz-adv-x="780" d="M281 610H166L150 580H262Q219 501 203 453H78L61 422H193Q162 333 162 242Q162 134 215 64Q273 -14 377 -14Q510 -14 662 149Q727 219 727 236Q727 250 717 250Q712 250 706 247Q672 209 625
156Q497 23 379 23Q266 23 266 141Q266 262 328 422H571L588 453H340Q371 529 399 580H659L676 610H416Q480 732 559 824Q671 954 764 954Q838 954 838 903Q838 901 811 867T784 803Q784 745 846 745Q885 745 912 780Q936 812 936 852Q936 916 883 956Q835 991
768 991Q643 991 489 856Q365 747 281 610Z" />
</font>
</defs>
</svg>
